<?xml version="1.0" encoding="UTF-8" standalone="no"?>
<svg
   xmlns:dc="http://purl.org/dc/elements/1.1/"
   xmlns:cc="http://creativecommons.org/ns#"
   xmlns:rdf="http://www.w3.org/1999/02/22-rdf-syntax-ns#"
   xmlns:svg="http://www.w3.org/2000/svg"
   xmlns="http://www.w3.org/2000/svg"
   width="128"
   height="128"
   viewBox="0 0 33.866665 33.866667"
   version="1.1"
   id="svg8">
  <title
     id="title4488">あ</title>
  <defs
     id="defs2" />
  <metadata
     id="metadata5">
    <rdf:RDF>
      <cc:Work
         rdf:about="">
        <dc:format>image/svg+xml</dc:format>
        <dc:type
           rdf:resource="http://purl.org/dc/dcmitype/StillImage" />
        <dc:title>あ</dc:title>
        <dc:creator>
          <cc:Agent>
            <dc:title>Oscar Javier Jiménez Mejía</dc:title>
          </cc:Agent>
        </dc:creator>
        <dc:rights>
          <cc:Agent>
            <dc:title>leojim06</dc:title>
          </cc:Agent>
        </dc:rights>
        <dc:language>Japonés</dc:language>
        <dc:publisher>
          <cc:Agent>
            <dc:title>leojim06</dc:title>
          </cc:Agent>
        </dc:publisher>
      </cc:Work>
    </rdf:RDF>
  </metadata>
  <g
     id="text4494"
     style="font-style:normal;font-variant:normal;font-weight:bold;font-stretch:normal;font-size:25.39999962px;line-height:100%;font-family:Roboto;-inkscape-font-specification:'Roboto, Bold';text-align:start;letter-spacing:0px;word-spacing:0px;writing-mode:lr-tb;text-anchor:start;fill:#000000;fill-opacity:1;stroke:none;stroke-width:0.26458332px;stroke-linecap:butt;stroke-linejoin:miter;stroke-opacity:1"
     aria-label="あ">
    <path
       id="path4496"
       style="stroke-width:0.26458332px"
       d="m 18.024739,26.160675 q 4.067968,-0.396875 5.457031,-1.785937 1.091406,-1.091406 1.091406,-3.075781 0,-2.182813 -1.091406,-3.274219 -1.289844,-1.289844 -3.571875,-1.488281 -1.5875,5.159375 -3.571875,7.242968 l 0.595312,1.289844 -1.885156,1.389063 -0.496094,-1.091407 q -2.579687,2.182813 -4.365625,2.182813 -1.1906245,0 -2.182812,-0.992188 -1.0914062,-1.091406 -1.0914062,-2.976562 0,-3.373437 2.2820312,-5.655469 1.389062,-1.389062 2.877344,-2.182812 L 12.270051,11.972394 8.1028638,12.170832 7.7059888,9.9880194 12.36927,9.8888007 q 0.09922,-2.2820312 0.297656,-4.365625 h 1.885156 q 0.992188,0.1984375 0.198438,0.79375 -0.198438,1.7859375 -0.297656,3.4726562 4.7625,-0.2976562 8.135937,-0.8929687 l 0.396875,2.1828128 q -4.167187,0.496093 -8.632031,0.694531 l -0.198438,3.175 q 1.389063,-0.496094 3.869532,-0.595313 l 0.297656,-1.5875 1.885156,0.297657 q 0.892969,0.198437 0.198438,0.79375 l -0.09922,0.694531 q 3.075781,0.297656 4.7625,1.984375 1.885156,1.885156 1.885156,4.861719 0,2.778124 -1.686719,4.464843 -1.785937,1.785938 -5.953125,2.480469 z M 12.36927,17.826301 q -0.79375,0.396875 -1.785938,1.389062 -1.785937,1.785938 -1.785937,4.663281 0,0.79375 0.5953125,1.389063 0.1984375,0.198437 0.7937495,0.198437 1.488282,0 3.373438,-1.885156 -0.992188,-2.976562 -1.190625,-5.754687 z m 1.984375,-0.992188 q 0.09922,2.579688 0.992187,4.960937 1.5875,-2.182812 2.282032,-5.457031 -1.785938,0 -3.274219,0.496094 z" />
  </g>
</svg>
