<?xml version="1.0" encoding="UTF-8" standalone="no"?>
<svg
   xmlns:dc="http://purl.org/dc/elements/1.1/"
   xmlns:cc="http://creativecommons.org/ns#"
   xmlns:rdf="http://www.w3.org/1999/02/22-rdf-syntax-ns#"
   xmlns:svg="http://www.w3.org/2000/svg"
   xmlns="http://www.w3.org/2000/svg"
   width="128"
   height="128"
   viewBox="0 0 33.866665 33.866667"
   version="1.1"
   id="svg8">
  <title
     id="title4519">う</title>
  <defs
     id="defs2" />
  <metadata
     id="metadata5">
    <rdf:RDF>
      <cc:Work
         rdf:about="">
        <dc:format>image/svg+xml</dc:format>
        <dc:type
           rdf:resource="http://purl.org/dc/dcmitype/StillImage" />
        <dc:title>う</dc:title>
        <dc:creator>
          <cc:Agent>
            <dc:title>Oscar Javier Jiménez Mejía</dc:title>
          </cc:Agent>
        </dc:creator>
        <dc:rights>
          <cc:Agent>
            <dc:title>leojim06</dc:title>
          </cc:Agent>
        </dc:rights>
        <dc:language>Japonés</dc:language>
        <dc:publisher>
          <cc:Agent>
            <dc:title>leojim06</dc:title>
          </cc:Agent>
        </dc:publisher>
      </cc:Work>
    </rdf:RDF>
  </metadata>
  <g
     id="text4514"
     style="font-style:normal;font-variant:normal;font-weight:bold;font-stretch:normal;font-size:25.39999962px;line-height:100%;font-family:Roboto;-inkscape-font-specification:'Roboto, Bold';text-align:start;letter-spacing:0px;word-spacing:0px;writing-mode:lr-tb;text-anchor:start;fill:#000000;fill-opacity:1;stroke:none;stroke-width:0.26458332px;stroke-linecap:butt;stroke-linejoin:miter;stroke-opacity:1"
     aria-label="う">
    <path
       id="path4516"
       style="stroke-width:0.26458332px"
       d="m 13.609504,25.962238 q 4.067969,-0.892968 6.35,-3.175 1.885156,-1.885156 1.885156,-4.464843 0,-1.785938 -0.992187,-2.778125 -0.892969,-0.892969 -2.282031,-0.79375 -2.778125,0.297656 -7.9375,1.984375 L 9.5415356,14.155207 q 3.7703124,-0.694531 7.0445314,-1.488281 1.686718,-0.396875 2.579687,-0.396875 2.182813,0 3.571875,1.389062 1.5875,1.5875 1.5875,4.564063 0,3.869531 -2.678906,6.548437 -2.38125,2.38125 -6.449219,3.472657 z M 21.84466,9.6903636 q -3.96875,-0.396875 -9.624218,-1.5875 l 0.595312,-2.4804687 q 5.55625,1.2898437 9.525,1.6867187 z" />
  </g>
</svg>
