<?xml version="1.0" encoding="UTF-8" standalone="no"?>
<svg
   xmlns:dc="http://purl.org/dc/elements/1.1/"
   xmlns:cc="http://creativecommons.org/ns#"
   xmlns:rdf="http://www.w3.org/1999/02/22-rdf-syntax-ns#"
   xmlns:svg="http://www.w3.org/2000/svg"
   xmlns="http://www.w3.org/2000/svg"
   id="svg8"
   version="1.1"
   viewBox="0 0 33.866665 33.866667"
   height="128"
   width="128">
  <title
     id="title4494">え</title>
  <defs
     id="defs2" />
  <metadata
     id="metadata5">
    <rdf:RDF>
      <cc:Work
         rdf:about="">
        <dc:format>image/svg+xml</dc:format>
        <dc:type
           rdf:resource="http://purl.org/dc/dcmitype/StillImage" />
        <dc:title>え</dc:title>
        <dc:creator>
          <cc:Agent>
            <dc:title>Oscar Javier Jiménez Mejía</dc:title>
          </cc:Agent>
        </dc:creator>
        <dc:rights>
          <cc:Agent>
            <dc:title>leojim06</dc:title>
          </cc:Agent>
        </dc:rights>
        <dc:language>Japonés</dc:language>
        <dc:publisher>
          <cc:Agent>
            <dc:title>leojim06</dc:title>
          </cc:Agent>
        </dc:publisher>
      </cc:Work>
    </rdf:RDF>
  </metadata>
  <g
     id="text4489"
     style="font-style:normal;font-variant:normal;font-weight:bold;font-stretch:normal;font-size:25.39999962px;line-height:100%;font-family:Roboto;-inkscape-font-specification:'Roboto, Bold';text-align:start;letter-spacing:0px;word-spacing:0px;writing-mode:lr-tb;text-anchor:start;fill:#000000;fill-opacity:1;stroke:none;stroke-width:0.26458332px;stroke-linecap:butt;stroke-linejoin:miter;stroke-opacity:1"
     aria-label="え">
    <path
       id="path4491"
       style="stroke-width:0.26458332px"
       d="M 8.6981761,13.21263 Q 17.528645,12.617317 20.009113,12.220442 l 0.79375,-0.396875 1.686719,1.686719 q -3.770312,2.678906 -6.35,5.457031 1.984375,-0.297656 2.579688,-0.09922 1.091406,0.396875 1.091406,1.686719 v 3.373437 q 0,1.190625 1.190625,1.091407 h 5.754687 l -0.396875,2.182812 h -4.960937 q -3.571875,0 -3.571875,-3.075781 v -2.480469 q 0,-1.190625 -1.488281,-1.190625 -1.289844,0 -2.579688,1.190625 -2.579687,2.38125 -4.8617184,5.159375 L 7.1106761,25.614973 Q 11.873176,20.058723 18.322395,14.304036 L 9.3927074,15.395442 Z M 20.604426,9.5415358 Q 16.139582,9.4423171 11.377082,8.9462233 l 0.297657,-2.2820312 q 3.770312,0.79375 9.227343,0.79375 z" />
  </g>
</svg>
