<?xml version="1.0" encoding="UTF-8" standalone="no"?>
<svg
   xmlns:dc="http://purl.org/dc/elements/1.1/"
   xmlns:cc="http://creativecommons.org/ns#"
   xmlns:rdf="http://www.w3.org/1999/02/22-rdf-syntax-ns#"
   xmlns:svg="http://www.w3.org/2000/svg"
   xmlns="http://www.w3.org/2000/svg"
   id="svg8"
   version="1.1"
   viewBox="0 0 33.866665 33.866667"
   height="128"
   width="128">
  <title
     id="title4505">お</title>
  <defs
     id="defs2" />
  <metadata
     id="metadata5">
    <rdf:RDF>
      <cc:Work
         rdf:about="">
        <dc:format>image/svg+xml</dc:format>
        <dc:type
           rdf:resource="http://purl.org/dc/dcmitype/StillImage" />
        <dc:title>お</dc:title>
        <dc:creator>
          <cc:Agent>
            <dc:title>Oscar Javier Jiménez Mejía</dc:title>
          </cc:Agent>
        </dc:creator>
        <dc:rights>
          <cc:Agent>
            <dc:title>leojim06</dc:title>
          </cc:Agent>
        </dc:rights>
        <dc:language>Japonés</dc:language>
        <dc:publisher>
          <cc:Agent>
            <dc:title>leojim06</dc:title>
          </cc:Agent>
        </dc:publisher>
      </cc:Work>
    </rdf:RDF>
  </metadata>
  <g
     id="text4500"
     style="font-style:normal;font-variant:normal;font-weight:bold;font-stretch:normal;font-size:25.39999962px;line-height:100%;font-family:Roboto;-inkscape-font-specification:'Roboto, Bold';text-align:start;letter-spacing:0px;word-spacing:0px;writing-mode:lr-tb;text-anchor:start;fill:#000000;fill-opacity:1;stroke:none;stroke-width:0.26458332px;stroke-linecap:butt;stroke-linejoin:miter;stroke-opacity:1"
     aria-label="お">
    <path
       id="path4502"
       style="stroke-width:0.26458332px"
       d="m 13.95677,16.536459 q 2.579687,-0.694532 4.266406,-0.694532 4.167188,0 6.250781,2.083594 1.686719,1.686719 1.686719,4.167188 0,2.282031 -1.190625,3.472656 -1.488281,1.488281 -3.671094,1.488281 -2.182812,0 -3.274218,-1.091406 -0.992188,-0.992188 -1.5875,-2.083594 l 1.785937,-1.190625 q 0.396875,0.892969 1.190625,1.686719 0.694531,0.694531 1.885156,0.694531 1.190625,0 2.083594,-0.892969 0.694531,-0.694531 0.694531,-2.182812 0,-1.5875 -1.389062,-2.976563 -1.289844,-1.289843 -4.167188,-1.289843 -2.182812,0 -4.564062,0.79375 v 5.258593 q 0,1.885157 -1.091406,2.976563 -1.091407,1.091406 -2.778125,1.091406 -1.289844,0 -2.3812503,-1.091406 -0.9921875,-0.992188 -0.9921875,-2.480469 0,-2.778125 1.7859375,-4.564062 1.3890625,-1.389063 3.4726563,-2.480469 V 12.964584 Q 9.4919262,13.26224 7.4083325,13.26224 L 7.1106762,11.178646 Q 9.19427,11.277865 11.972395,10.980209 V 6.0192714 h 1.984375 q 0.79375,0.1984375 0,0.79375 v 3.8695316 q 2.182812,-0.396875 3.96875,-1.1906254 l 0.496094,2.1828124 q -1.885157,0.595313 -4.464844,0.992188 z m -1.984375,2.778125 q -1.389063,0.992187 -2.0835938,1.686718 -1.2898437,1.289844 -1.2898437,3.075782 0,0.992187 0.396875,1.389062 0.4960937,0.496094 1.1906245,0.496094 1.785938,0 1.785938,-2.778125 z M 22.092707,8.4997401 q 3.274219,2.0835939 5.060156,4.1671879 l -1.5875,1.5875 q -2.38125,-2.38125 -4.960937,-4.067969 z" />
  </g>
</svg>
