<?xml version="1.0" encoding="UTF-8" standalone="no"?>
<svg
   xmlns:dc="http://purl.org/dc/elements/1.1/"
   xmlns:cc="http://creativecommons.org/ns#"
   xmlns:rdf="http://www.w3.org/1999/02/22-rdf-syntax-ns#"
   xmlns:svg="http://www.w3.org/2000/svg"
   xmlns="http://www.w3.org/2000/svg"
   width="128"
   height="128"
   viewBox="0 0 33.866665 33.866667"
   version="1.1"
   id="svg8">
  <title
     id="title4527">け</title>
  <defs
     id="defs2" />
  <metadata
     id="metadata5">
    <rdf:RDF>
      <cc:Work
         rdf:about="">
        <dc:format>image/svg+xml</dc:format>
        <dc:type
           rdf:resource="http://purl.org/dc/dcmitype/StillImage" />
        <dc:title>け</dc:title>
        <dc:creator>
          <cc:Agent>
            <dc:title>Oscar Javier Jiménez Mejía</dc:title>
          </cc:Agent>
        </dc:creator>
        <dc:rights>
          <cc:Agent>
            <dc:title>leojim06</dc:title>
          </cc:Agent>
        </dc:rights>
        <dc:language>Japonés</dc:language>
        <dc:publisher>
          <cc:Agent>
            <dc:title>leojim06</dc:title>
          </cc:Agent>
        </dc:publisher>
      </cc:Work>
    </rdf:RDF>
  </metadata>
  <g
     id="text4522"
     style="font-style:normal;font-variant:normal;font-weight:bold;font-stretch:normal;font-size:25.39999962px;line-height:100%;font-family:Roboto;-inkscape-font-specification:'Roboto, Bold';text-align:start;letter-spacing:0px;word-spacing:0px;writing-mode:lr-tb;text-anchor:start;fill:#000000;fill-opacity:1;stroke:none;stroke-width:0.26458332px;stroke-linecap:butt;stroke-linejoin:miter;stroke-opacity:1"
     aria-label="け">
    <path
       id="path4524"
       style="stroke-width:0.26458332px"
       d="m 21.84466,17.627864 q 0,5.754688 -3.373437,9.921875 l -2.083594,-1.190625 q 3.472656,-3.96875 3.472656,-9.128125 v -2.778125 q -3.770312,0.297656 -7.143749,0.297656 v -2.182812 q 3.373437,0.09922 7.143749,-0.198437 V 6.3169269 h 1.785938 q 0.892969,0.1984375 0.198437,0.79375 v 5.1593751 q 2.480469,-0.198438 4.663282,-0.595313 l 0.297656,2.083594 Q 24.22591,14.055989 21.84466,14.254427 Z M 7.0610669,17.330208 q 0,-5.754687 0.9921875,-10.0210936 l 1.8851562,0.4960937 q 1.2898434,0.2976562 0.099218,0.8929687 -0.8929684,4.2664062 -0.8929684,8.6320312 0,3.571875 0.79375,7.540625 l -2.1828125,0.396875 q -0.6945312,-3.571875 -0.6945312,-7.9375 z" />
  </g>
</svg>
