<?xml version="1.0" encoding="UTF-8" standalone="no"?>
<svg
   xmlns:dc="http://purl.org/dc/elements/1.1/"
   xmlns:cc="http://creativecommons.org/ns#"
   xmlns:rdf="http://www.w3.org/1999/02/22-rdf-syntax-ns#"
   xmlns:svg="http://www.w3.org/2000/svg"
   xmlns="http://www.w3.org/2000/svg"
   width="128"
   height="128"
   viewBox="0 0 33.866665 33.866667"
   version="1.1"
   id="svg8">
  <title
     id="title4553">さ</title>
  <defs
     id="defs2" />
  <metadata
     id="metadata5">
    <rdf:RDF>
      <cc:Work
         rdf:about="">
        <dc:format>image/svg+xml</dc:format>
        <dc:type
           rdf:resource="http://purl.org/dc/dcmitype/StillImage" />
        <dc:title>さ</dc:title>
        <dc:creator>
          <cc:Agent>
            <dc:title>Oscar Javier Jiménez Mejía</dc:title>
          </cc:Agent>
        </dc:creator>
        <dc:rights>
          <cc:Agent>
            <dc:title>leojim06</dc:title>
          </cc:Agent>
        </dc:rights>
        <dc:language>Japonés</dc:language>
        <dc:publisher>
          <cc:Agent>
            <dc:title>leojim06</dc:title>
          </cc:Agent>
        </dc:publisher>
      </cc:Work>
    </rdf:RDF>
  </metadata>
  <g
     id="text4548"
     style="font-style:normal;font-variant:normal;font-weight:bold;font-stretch:normal;font-size:25.39999962px;line-height:100%;font-family:Roboto;-inkscape-font-specification:'Roboto, Bold';text-align:start;letter-spacing:0px;word-spacing:0px;writing-mode:lr-tb;text-anchor:start;fill:#000000;fill-opacity:1;stroke:none;stroke-width:0.26458332px;stroke-linecap:butt;stroke-linejoin:miter;stroke-opacity:1"
     aria-label="さ">
    <path
       id="path4550"
       style="stroke-width:0.26458332px"
       d="m 17.13177,13.014192 q -4.067969,0.297656 -8.0367188,0.297656 L 8.4997387,11.327473 q 4.8617183,0 7.8382813,-0.198438 -0.992188,-2.7781245 -1.389063,-5.1593745 h 2.182813 q 0.892969,0.1984375 0.198437,0.79375 0.396875,1.8851562 1.190625,4.1671875 3.472657,-0.297656 5.953125,-0.892969 l 0.496094,2.182813 q -2.877344,0.396875 -5.655469,0.595312 1.984375,3.770313 6.052344,6.548438 l -1.488281,1.785937 q -3.671094,-1.686719 -7.242969,-1.686719 -3.274219,0 -4.564062,1.289844 -0.595313,0.595313 -0.595313,1.686719 0,0.992187 0.892969,1.885156 1.389062,1.389062 6.548437,1.389062 h 3.472657 l -0.496094,2.182813 h -3.770313 q -5.159375,0 -7.242968,-2.083594 -1.4882815,-1.488281 -1.4882815,-3.373437 0,-1.885156 1.0914065,-2.976563 1.785937,-1.785937 5.55625,-1.785937 3.770312,0 4.365625,0.396875 -2.38125,-2.976563 -3.274219,-5.060156 z" />
  </g>
</svg>
