<?xml version="1.0" encoding="UTF-8" standalone="no"?>
<svg
   xmlns:dc="http://purl.org/dc/elements/1.1/"
   xmlns:cc="http://creativecommons.org/ns#"
   xmlns:rdf="http://www.w3.org/1999/02/22-rdf-syntax-ns#"
   xmlns:svg="http://www.w3.org/2000/svg"
   xmlns="http://www.w3.org/2000/svg"
   width="128"
   height="128"
   viewBox="0 0 33.866665 33.866667"
   version="1.1"
   id="svg8">
  <title
     id="title4575">す</title>
  <defs
     id="defs2" />
  <metadata
     id="metadata5">
    <rdf:RDF>
      <cc:Work
         rdf:about="">
        <dc:format>image/svg+xml</dc:format>
        <dc:type
           rdf:resource="http://purl.org/dc/dcmitype/StillImage" />
        <dc:title>す</dc:title>
        <dc:creator>
          <cc:Agent>
            <dc:title>Oscar Javier Jiménez Mejía</dc:title>
          </cc:Agent>
        </dc:creator>
        <dc:rights>
          <cc:Agent>
            <dc:title>leojim06</dc:title>
          </cc:Agent>
        </dc:rights>
        <dc:language>Japonés</dc:language>
        <dc:publisher>
          <cc:Agent>
            <dc:title>leojim06</dc:title>
          </cc:Agent>
        </dc:publisher>
      </cc:Work>
    </rdf:RDF>
  </metadata>
  <g
     id="text4570"
     style="font-style:normal;font-variant:normal;font-weight:bold;font-stretch:normal;font-size:25.39999962px;line-height:100%;font-family:Roboto;-inkscape-font-specification:'Roboto, Bold';text-align:start;letter-spacing:0px;word-spacing:0px;writing-mode:lr-tb;text-anchor:start;fill:#000000;fill-opacity:1;stroke:none;stroke-width:0.26458332px;stroke-linecap:butt;stroke-linejoin:miter;stroke-opacity:1"
     aria-label="す">
    <path
       id="path4572"
       style="stroke-width:0.26458332px"
       d="m 17.181379,20.852474 q -1.190625,0.694531 -2.480468,0.694531 -1.686719,0 -2.579688,-0.892969 -1.190625,-1.190625 -1.190625,-2.678906 0,-1.5875 1.190625,-2.778125 1.190625,-1.190625 2.976563,-1.190625 1.190625,0 2.282031,0.297656 V 12.121224 L 6.4657545,12.815755 6.0688795,10.732161 17.379817,10.236067 V 5.5727863 h 1.785937 q 1.091407,0.1984375 0.198438,0.7937499 V 10.136849 L 27.797785,9.5415362 V 11.62513 l -8.433593,0.396875 v 3.770312 q 0.396875,1.785938 0.396875,3.96875 -0.09922,5.060156 -5.655469,8.532813 l -1.885156,-1.389063 q 4.960937,-2.877344 4.960937,-6.052343 z m -1.885156,-5.159375 q -1.091406,0 -1.785937,0.694531 -0.595313,0.595312 -0.595313,1.5875 0,0.892969 0.496094,1.389062 0.496094,0.496094 1.5875,0.496094 1.091406,0 1.785937,-0.694531 0.595313,-0.595313 0.595313,-1.488281 0,-0.892969 -0.595313,-1.488282 -0.496093,-0.496093 -1.488281,-0.496093 z" />
  </g>
</svg>
