<?xml version="1.0" encoding="UTF-8" standalone="no"?>
<svg
   xmlns:dc="http://purl.org/dc/elements/1.1/"
   xmlns:cc="http://creativecommons.org/ns#"
   xmlns:rdf="http://www.w3.org/1999/02/22-rdf-syntax-ns#"
   xmlns:svg="http://www.w3.org/2000/svg"
   xmlns="http://www.w3.org/2000/svg"
   width="128"
   height="128"
   viewBox="0 0 33.866665 33.866667"
   version="1.1"
   id="svg8">
  <title
     id="title4586">せ</title>
  <defs
     id="defs2" />
  <metadata
     id="metadata5">
    <rdf:RDF>
      <cc:Work
         rdf:about="">
        <dc:format>image/svg+xml</dc:format>
        <dc:type
           rdf:resource="http://purl.org/dc/dcmitype/StillImage" />
        <dc:title>せ</dc:title>
        <dc:creator>
          <cc:Agent>
            <dc:title>Oscar Javier Jiménez Mejía</dc:title>
          </cc:Agent>
        </dc:creator>
        <dc:rights>
          <cc:Agent>
            <dc:title>leojim06</dc:title>
          </cc:Agent>
        </dc:rights>
        <dc:language>Japonés</dc:language>
        <dc:publisher>
          <cc:Agent>
            <dc:title>leojim06</dc:title>
          </cc:Agent>
        </dc:publisher>
      </cc:Work>
    </rdf:RDF>
  </metadata>
  <g
     id="text4581"
     style="font-style:normal;font-variant:normal;font-weight:bold;font-stretch:normal;font-size:25.39999962px;line-height:100%;font-family:Roboto;-inkscape-font-specification:'Roboto, Bold';text-align:start;letter-spacing:0px;word-spacing:0px;writing-mode:lr-tb;text-anchor:start;fill:#000000;fill-opacity:1;stroke:none;stroke-width:0.26458332px;stroke-linecap:butt;stroke-linejoin:miter;stroke-opacity:1"
     aria-label="せ">
    <path
       id="path4583"
       style="stroke-width:0.26458332px"
       d="m 22.489583,18.520833 q 0,2.778125 -2.678907,2.778125 h -3.274218 l -0.396875,-2.182813 h 3.373437 q 0.992188,0 0.992188,-0.992187 v -3.175 l -7.441407,0.496093 v 7.242969 q 0,1.785937 1.885157,1.785937 h 9.723437 L 24.27552,26.65677 h -9.425781 q -3.770313,0 -3.770313,-3.770313 V 15.643489 L 6.118489,16.040364 5.8208328,13.95677 11.079426,13.659114 V 8.5989577 h 1.785938 q 0.992187,0.1984375 0.198437,0.79375 v 4.1671873 l 7.441407,-0.496094 V 7.2098952 h 1.785937 q 0.992188,0.1984375 0.198438,0.79375 v 4.9609378 l 5.357812,-0.297657 0.198437,2.083594 -5.556249,0.09922 z" />
  </g>
</svg>
