<?xml version="1.0" encoding="UTF-8" standalone="no"?>
<svg
   xmlns:dc="http://purl.org/dc/elements/1.1/"
   xmlns:cc="http://creativecommons.org/ns#"
   xmlns:rdf="http://www.w3.org/1999/02/22-rdf-syntax-ns#"
   xmlns:svg="http://www.w3.org/2000/svg"
   xmlns="http://www.w3.org/2000/svg"
   width="128"
   height="128"
   viewBox="0 0 33.866665 33.866667"
   version="1.1"
   id="svg8">
  <title
     id="title4608">た</title>
  <defs
     id="defs2" />
  <metadata
     id="metadata5">
    <rdf:RDF>
      <cc:Work
         rdf:about="">
        <dc:format>image/svg+xml</dc:format>
        <dc:type
           rdf:resource="http://purl.org/dc/dcmitype/StillImage" />
        <dc:title>た</dc:title>
        <dc:creator>
          <cc:Agent>
            <dc:title>Oscar Javier Jiménez Mejía</dc:title>
          </cc:Agent>
        </dc:creator>
        <dc:rights>
          <cc:Agent>
            <dc:title>leojim06</dc:title>
          </cc:Agent>
        </dc:rights>
        <dc:language>Japonés</dc:language>
        <dc:publisher>
          <cc:Agent>
            <dc:title>leojim06</dc:title>
          </cc:Agent>
        </dc:publisher>
      </cc:Work>
    </rdf:RDF>
  </metadata>
  <g
     id="text4603"
     style="font-style:normal;font-variant:normal;font-weight:bold;font-stretch:normal;font-size:25.39999962px;line-height:100%;font-family:Roboto;-inkscape-font-specification:'Roboto, Bold';text-align:start;letter-spacing:0px;word-spacing:0px;writing-mode:lr-tb;text-anchor:start;fill:#000000;fill-opacity:1;stroke:none;stroke-width:0.26458332px;stroke-linecap:butt;stroke-linejoin:miter;stroke-opacity:1"
     aria-label="た">
    <path
       id="path4605"
       style="stroke-width:0.26458332px"
       d="m 27.152864,25.118878 v 2.182813 h -4.365625 q -3.770313,0 -7.14375,-1.785938 l 0.892969,-1.785937 q 2.579687,1.389062 6.250781,1.389062 z M 13.460676,13.510285 Q 11.972395,22.340753 9.7895827,27.500128 L 7.6067703,26.805597 Q 10.285676,20.554816 11.377083,13.708722 8.9958328,13.90716 7.1106765,13.90716 l -0.396875,-1.984375 q 2.778125,0 4.9609375,-0.198438 0.396875,-3.0757811 0.694531,-5.3578123 l 1.984375,0.396875 q 1.091406,0.2976563 0.198438,0.79375 -0.297657,1.190625 -0.79375,3.9687503 2.282031,-0.297657 4.167187,-0.79375 l 0.396875,1.984375 q -2.579687,0.496093 -4.861719,0.79375 z m 13.196094,3.373437 q -5.754687,0.198438 -9.028906,1.5875 l -0.595313,-1.984375 q 4.266407,-1.686719 9.227344,-1.686719 z" />
  </g>
</svg>
