<?xml version="1.0" encoding="UTF-8" standalone="no"?>
<svg
   xmlns:dc="http://purl.org/dc/elements/1.1/"
   xmlns:cc="http://creativecommons.org/ns#"
   xmlns:rdf="http://www.w3.org/1999/02/22-rdf-syntax-ns#"
   xmlns:svg="http://www.w3.org/2000/svg"
   xmlns="http://www.w3.org/2000/svg"
   width="128"
   height="128"
   viewBox="0 0 33.866665 33.866667"
   version="1.1"
   id="svg8">
  <title
     id="title4619">ち</title>
  <defs
     id="defs2" />
  <metadata
     id="metadata5">
    <rdf:RDF>
      <cc:Work
         rdf:about="">
        <dc:format>image/svg+xml</dc:format>
        <dc:type
           rdf:resource="http://purl.org/dc/dcmitype/StillImage" />
        <dc:title>ち</dc:title>
        <dc:creator>
          <cc:Agent>
            <dc:title>Oscar Javier Jiménez Mejía</dc:title>
          </cc:Agent>
        </dc:creator>
        <dc:rights>
          <cc:Agent>
            <dc:title>leojim06</dc:title>
          </cc:Agent>
        </dc:rights>
        <dc:language>Japonés</dc:language>
        <dc:publisher>
          <cc:Agent>
            <dc:title>leojim06</dc:title>
          </cc:Agent>
        </dc:publisher>
      </cc:Work>
    </rdf:RDF>
  </metadata>
  <g
     id="text4614"
     style="font-style:normal;font-variant:normal;font-weight:bold;font-stretch:normal;font-size:25.39999962px;line-height:100%;font-family:Roboto;-inkscape-font-specification:'Roboto, Bold';text-align:start;letter-spacing:0px;word-spacing:0px;writing-mode:lr-tb;text-anchor:start;fill:#000000;fill-opacity:1;stroke:none;stroke-width:0.26458332px;stroke-linecap:butt;stroke-linejoin:miter;stroke-opacity:1"
     aria-label="ち">
    <path
       id="path4616"
       style="stroke-width:0.26458332px"
       d="m 14.651301,25.463989 q 6.846094,0.198437 8.532812,-1.488282 0.892969,-0.892968 0.892969,-2.282031 0,-1.190625 -0.992187,-2.182812 -0.892969,-0.892969 -2.877344,-0.892969 -2.579688,0 -4.564062,0.992187 -1.190625,0.595313 -3.96875,2.877344 L 9.8888011,21.098364 q 0.5953129,-0.595313 1.0914059,-1.289844 1.091407,-3.472656 1.785938,-6.945313 -2.678906,0.297657 -4.8617189,0.297657 L 7.6067699,11.176489 q 2.2820312,0 5.5562501,-0.297657 0.496094,-2.182812 0.694531,-4.6632807 l 1.885156,0.4960937 q 1.190625,0.2976563 0.198438,0.79375 -0.297656,1.5875 -0.694531,3.175 3.968749,-0.396875 6.250781,-0.8929688 L 21.89427,11.87102 q -3.96875,0.496094 -7.044531,0.79375 -0.694532,2.976562 -1.389063,5.853906 3.571875,-1.785937 6.449219,-1.785937 3.373437,0 4.960937,1.5875 1.389063,1.389062 1.389063,3.671093 0,2.182813 -1.389063,3.571875 -2.182812,2.182813 -9.525,2.083594 z" />
  </g>
</svg>
