<?xml version="1.0" encoding="UTF-8" standalone="no"?>
<svg
   xmlns:dc="http://purl.org/dc/elements/1.1/"
   xmlns:cc="http://creativecommons.org/ns#"
   xmlns:rdf="http://www.w3.org/1999/02/22-rdf-syntax-ns#"
   xmlns:svg="http://www.w3.org/2000/svg"
   xmlns="http://www.w3.org/2000/svg"
   width="128"
   height="128"
   viewBox="0 0 33.866665 33.866667"
   version="1.1"
   id="svg8">
  <title
     id="title4652">と</title>
  <defs
     id="defs2" />
  <metadata
     id="metadata5">
    <rdf:RDF>
      <cc:Work
         rdf:about="">
        <dc:format>image/svg+xml</dc:format>
        <dc:type
           rdf:resource="http://purl.org/dc/dcmitype/StillImage" />
        <dc:title>と</dc:title>
        <dc:creator>
          <cc:Agent>
            <dc:title>Oscar Javier Jiménez Mejía</dc:title>
          </cc:Agent>
        </dc:creator>
        <dc:rights>
          <cc:Agent>
            <dc:title>leojim06</dc:title>
          </cc:Agent>
        </dc:rights>
        <dc:language>Japonés</dc:language>
        <dc:publisher>
          <cc:Agent>
            <dc:title>leojim06</dc:title>
          </cc:Agent>
        </dc:publisher>
      </cc:Work>
    </rdf:RDF>
  </metadata>
  <g
     id="text4647"
     style="font-style:normal;font-variant:normal;font-weight:bold;font-stretch:normal;font-size:25.39999962px;line-height:100%;font-family:Roboto;-inkscape-font-specification:'Roboto, Bold';text-align:start;letter-spacing:0px;word-spacing:0px;writing-mode:lr-tb;text-anchor:start;fill:#000000;fill-opacity:1;stroke:none;stroke-width:0.26458332px;stroke-linecap:butt;stroke-linejoin:miter;stroke-opacity:1"
     aria-label="と">
    <path
       id="path4649"
       style="stroke-width:0.26458332px"
       d="m 13.361458,6.6145824 h 2.083593 q 1.091407,0.1984375 0.198438,0.7937499 l 0.198437,4.7624997 q 0.09922,2.083594 0.694532,3.373438 2.778125,-1.190625 7.441406,-2.480469 l 0.992187,2.579687 q -9.425781,1.686719 -12.600781,4.861719 -1.091406,1.091406 -1.091406,2.282031 0,0.892969 0.694531,1.5875 0.694531,0.694532 2.877344,0.694532 h 9.525 v 2.182812 H 14.75052 q -3.274219,0 -4.564062,-1.289844 -1.2898441,-1.289843 -1.2898441,-2.976562 0,-2.182813 1.5875001,-3.770313 1.190625,-1.190625 3.96875,-2.778125 -0.595313,-1.488281 -0.694531,-3.274218 z" />
  </g>
</svg>
