<?xml version="1.0" encoding="UTF-8" standalone="no"?>
<svg
   xmlns:dc="http://purl.org/dc/elements/1.1/"
   xmlns:cc="http://creativecommons.org/ns#"
   xmlns:rdf="http://www.w3.org/1999/02/22-rdf-syntax-ns#"
   xmlns:svg="http://www.w3.org/2000/svg"
   xmlns="http://www.w3.org/2000/svg"
   width="128"
   height="128"
   viewBox="0 0 33.866665 33.866667"
   version="1.1"
   id="svg8">
  <title
     id="title4663">な</title>
  <defs
     id="defs2" />
  <metadata
     id="metadata5">
    <rdf:RDF>
      <cc:Work
         rdf:about="">
        <dc:format>image/svg+xml</dc:format>
        <dc:type
           rdf:resource="http://purl.org/dc/dcmitype/StillImage" />
        <dc:title>な</dc:title>
        <dc:creator>
          <cc:Agent>
            <dc:title>Oscar Javier Jiménez Mejía</dc:title>
          </cc:Agent>
        </dc:creator>
        <dc:rights>
          <cc:Agent>
            <dc:title>leojim06</dc:title>
          </cc:Agent>
        </dc:rights>
        <dc:language>Japonés</dc:language>
        <dc:publisher>
          <cc:Agent>
            <dc:title>leojim06</dc:title>
          </cc:Agent>
        </dc:publisher>
      </cc:Work>
    </rdf:RDF>
  </metadata>
  <g
     id="text4658"
     style="font-style:normal;font-variant:normal;font-weight:bold;font-stretch:normal;font-size:25.39999962px;line-height:100%;font-family:Roboto;-inkscape-font-specification:'Roboto, Bold';text-align:start;letter-spacing:0px;word-spacing:0px;writing-mode:lr-tb;text-anchor:start;fill:#000000;fill-opacity:1;stroke:none;stroke-width:0.26458332px;stroke-linecap:butt;stroke-linejoin:miter;stroke-opacity:1"
     aria-label="な">
    <path
       id="path4660"
       style="stroke-width:0.26458332px"
       d="m 21.695832,15.048177 q 1.091406,0.198437 0.198438,0.79375 v 5.754687 q 2.480468,0.79375 5.159375,2.182813 l -1.190625,1.885156 q -2.182813,-1.289844 -3.96875,-1.885156 -0.297657,2.083593 -1.289844,3.075781 -1.190625,1.190625 -3.274219,1.190625 -2.778125,0 -3.869531,-1.091406 -0.992187,-0.992188 -0.992187,-2.579688 0,-1.289844 0.992187,-2.282031 1.289844,-1.289844 3.770312,-1.289844 1.686719,0 2.678907,0.297656 V 15.048177 Z M 11.079426,12.666927 Q 9.4919261,12.865364 7.1106761,12.865364 L 6.8130199,10.781771 q 2.4804687,0 4.9609371,-0.198438 0.496094,-1.7859374 1.190625,-4.7624999 l 1.785938,0.5953125 q 0.992187,0.396875 0,0.79375 l -0.892969,3.1750004 q 1.686719,-0.198438 3.472656,-0.6945317 l 0.496094,2.0835937 q -2.778125,0.595313 -4.564062,0.694531 -1.5875,5.060156 -4.6632816,11.013281 l -1.984375,-0.992187 q 3.0757812,-5.457031 4.4648436,-9.822656 z m 9.525,-2.9765627 q 2.778125,0.8929687 6.647656,2.3812497 l -0.892969,2.083594 Q 22.191926,12.369271 19.810676,11.674739 Z M 19.909895,22.985677 q -1.190625,-0.396875 -2.678907,-0.396875 -1.587499,0 -2.182812,0.595312 -0.496094,0.496094 -0.496094,1.190625 0,0.694531 0.396875,1.091406 0.595313,0.595313 2.083594,0.595313 1.389062,0 1.984375,-0.595313 0.892969,-0.892968 0.892969,-2.480468 z" />
  </g>
</svg>
