<?xml version="1.0" encoding="UTF-8" standalone="no"?>
<svg
   xmlns:dc="http://purl.org/dc/elements/1.1/"
   xmlns:cc="http://creativecommons.org/ns#"
   xmlns:rdf="http://www.w3.org/1999/02/22-rdf-syntax-ns#"
   xmlns:svg="http://www.w3.org/2000/svg"
   xmlns="http://www.w3.org/2000/svg"
   width="128"
   height="128"
   viewBox="0 0 33.866665 33.866667"
   version="1.1"
   id="svg8">
  <title
     id="title4685">ぬ</title>
  <defs
     id="defs2" />
  <metadata
     id="metadata5">
    <rdf:RDF>
      <cc:Work
         rdf:about="">
        <dc:format>image/svg+xml</dc:format>
        <dc:type
           rdf:resource="http://purl.org/dc/dcmitype/StillImage" />
        <dc:title>ぬ</dc:title>
        <dc:creator>
          <cc:Agent>
            <dc:title>Oscar Javier Jiménez Mejía</dc:title>
          </cc:Agent>
        </dc:creator>
        <dc:rights>
          <cc:Agent>
            <dc:title>leojim06</dc:title>
          </cc:Agent>
        </dc:rights>
        <dc:language>Japonés</dc:language>
        <dc:publisher>
          <cc:Agent>
            <dc:title>leojim06</dc:title>
          </cc:Agent>
        </dc:publisher>
      </cc:Work>
    </rdf:RDF>
  </metadata>
  <g
     id="text4680"
     style="font-style:normal;font-variant:normal;font-weight:bold;font-stretch:normal;font-size:25.39999962px;line-height:100%;font-family:Roboto;-inkscape-font-specification:'Roboto, Bold';text-align:start;letter-spacing:0px;word-spacing:0px;writing-mode:lr-tb;text-anchor:start;fill:#000000;fill-opacity:1;stroke:none;stroke-width:0.26458332px;stroke-linecap:butt;stroke-linejoin:miter;stroke-opacity:1"
     aria-label="ぬ">
    <path
       id="path4682"
       style="stroke-width:0.26458332px"
       d="m 25.267707,25.019662 q -1.5875,2.182812 -4.167187,2.182812 -2.282031,0 -3.274219,-0.992187 -0.79375,-0.79375 -0.79375,-2.182813 0,-1.190625 0.79375,-1.984375 0.992188,-0.992187 3.075781,-0.992187 1.488282,0 3.373438,0.79375 0.198437,-0.694531 0.198437,-2.579688 0,-2.579687 -1.488281,-4.067968 -1.488281,-1.488282 -5.060156,-1.488282 -0.892969,4.067969 -2.976563,8.235157 l 0.992188,1.289843 -1.488281,1.785938 -0.892969,-0.992188 q -0.595313,0.892969 -0.992188,1.289844 -1.785937,1.785937 -3.4726558,1.785937 -1.190625,0 -1.8851562,-0.694531 -1.4882812,-1.488281 -1.4882812,-3.770312 0,-1.885156 0.7937499,-3.571875 0.79375,-1.686719 2.38125,-3.274219 Q 8.003645,11.922787 8.003645,8.9462245 l 2.083594,-0.2976563 q 1.091406,0 0.198437,0.79375 0,1.8851558 0.496094,4.7624998 2.579687,-1.785937 5.258594,-2.282031 0.496093,-2.8773438 0.396875,-5.2585937 l 2.083593,0.396875 q 1.091407,0.1984375 0.198438,0.7937499 -0.09922,1.7859375 -0.496094,3.8695308 4.564063,0 6.746875,2.182813 1.785937,1.785937 1.785937,4.960937 0,2.38125 -0.496093,4.266407 l 1.885156,1.785937 -1.488281,1.785937 z M 12.270051,22.439974 q -1.5875,-2.282031 -2.5796873,-4.663281 -0.9921875,1.289844 -1.2898437,1.885156 -0.79375,1.5875 -0.79375,2.877344 0,1.488281 0.5953125,2.083594 0.396875,0.396875 0.8929687,0.396875 0.9921878,0 1.6867188,-0.694532 1.091406,-1.091406 1.488281,-1.885156 z m 1.190625,-2.182812 q 1.190625,-2.083594 2.182813,-6.250781 -2.182813,0.595312 -4.266407,2.182812 0.79375,2.282031 2.083594,4.067969 z m 10.120312,3.274219 q -1.587499,-0.79375 -2.976562,-0.79375 -1.091406,0 -1.389062,0.297656 -0.396875,0.396875 -0.396875,0.992187 0,0.496094 0.396875,0.892969 0.396875,0.396875 1.785937,0.396875 1.885156,0 2.579687,-1.785937 z" />
  </g>
</svg>
