<?xml version="1.0" encoding="UTF-8" standalone="no"?>
<svg
   xmlns:dc="http://purl.org/dc/elements/1.1/"
   xmlns:cc="http://creativecommons.org/ns#"
   xmlns:rdf="http://www.w3.org/1999/02/22-rdf-syntax-ns#"
   xmlns:svg="http://www.w3.org/2000/svg"
   xmlns="http://www.w3.org/2000/svg"
   width="128"
   height="128"
   viewBox="0 0 33.866665 33.866667"
   version="1.1"
   id="svg8">
  <title
     id="title4696">ね</title>
  <defs
     id="defs2" />
  <metadata
     id="metadata5">
    <rdf:RDF>
      <cc:Work
         rdf:about="">
        <dc:format>image/svg+xml</dc:format>
        <dc:type
           rdf:resource="http://purl.org/dc/dcmitype/StillImage" />
        <dc:title>ね</dc:title>
        <dc:creator>
          <cc:Agent>
            <dc:title>Oscar Javier Jiménez Mejía</dc:title>
          </cc:Agent>
        </dc:creator>
        <dc:rights>
          <cc:Agent>
            <dc:title>leojim06</dc:title>
          </cc:Agent>
        </dc:rights>
        <dc:language>Japonés</dc:language>
        <dc:publisher>
          <cc:Agent>
            <dc:title>leojim06</dc:title>
          </cc:Agent>
        </dc:publisher>
      </cc:Work>
    </rdf:RDF>
  </metadata>
  <g
     id="text4691"
     style="font-style:normal;font-variant:normal;font-weight:bold;font-stretch:normal;font-size:25.39999962px;line-height:100%;font-family:Roboto;-inkscape-font-specification:'Roboto, Bold';text-align:start;letter-spacing:0px;word-spacing:0px;writing-mode:lr-tb;text-anchor:start;fill:#000000;fill-opacity:1;stroke:none;stroke-width:0.26458332px;stroke-linecap:butt;stroke-linejoin:miter;stroke-opacity:1"
     aria-label="ね">
    <path
       id="path4693"
       style="stroke-width:0.26458332px"
       d="m 26.011848,22.142317 q 1.289844,0.595312 2.579688,1.389062 l -1.389063,2.083594 q -0.892969,-0.79375 -1.885156,-1.389062 -1.289844,2.877343 -4.7625,2.877343 -2.38125,0 -3.373437,-0.992187 -0.992188,-0.992188 -0.992188,-2.38125 0,-1.289844 0.892969,-2.182813 1.091406,-1.091406 2.877343,-1.091406 1.984375,0 3.96875,0.79375 0.198438,-1.190625 0.198438,-3.075781 0,-3.274219 -0.892969,-4.167187 -0.694531,-0.694532 -2.083594,-0.694532 -3.770312,0 -8.532812,4.365625 v 10.120313 h -1.984375 v -8.135938 q -1.8851561,2.38125 -3.7703123,4.663281 l -1.5875,-1.389062 q 3.4726562,-3.472656 5.3578123,-7.14375 V 14.304036 L 5.9696609,15.395442 5.5727859,13.311848 10.632942,12.41888 V 6.0688796 h 1.785938 q 1.091406,0.1984375 0.198437,0.79375 v 4.3656254 l 1.5875,1.091406 -1.5875,2.083593 v 0.892969 q 4.663281,-3.96875 8.73125,-3.96875 2.38125,0 3.671094,1.289844 1.289843,1.289844 1.289843,5.655469 0,2.282031 -0.297656,3.869531 z m -2.38125,0.992187 q -2.282031,-0.992187 -3.175,-0.992187 -1.389062,0 -1.984375,0.595312 -0.496094,0.496094 -0.496094,1.091407 0,0.595312 0.396875,0.992187 0.595313,0.595313 1.785938,0.595313 2.480469,0 3.472656,-2.282032 z" />
  </g>
</svg>
