<?xml version="1.0" encoding="UTF-8" standalone="no"?>
<svg
   xmlns:dc="http://purl.org/dc/elements/1.1/"
   xmlns:cc="http://creativecommons.org/ns#"
   xmlns:rdf="http://www.w3.org/1999/02/22-rdf-syntax-ns#"
   xmlns:svg="http://www.w3.org/2000/svg"
   xmlns="http://www.w3.org/2000/svg"
   width="128"
   height="128"
   viewBox="0 0 33.866665 33.866667"
   version="1.1"
   id="svg8">
  <title
     id="title4707">の</title>
  <defs
     id="defs2" />
  <metadata
     id="metadata5">
    <rdf:RDF>
      <cc:Work
         rdf:about="">
        <dc:format>image/svg+xml</dc:format>
        <dc:type
           rdf:resource="http://purl.org/dc/dcmitype/StillImage" />
        <dc:title>の</dc:title>
        <dc:creator>
          <cc:Agent>
            <dc:title>Oscar Javier Jiménez Mejía</dc:title>
          </cc:Agent>
        </dc:creator>
        <dc:rights>
          <cc:Agent>
            <dc:title>leojim06</dc:title>
          </cc:Agent>
        </dc:rights>
        <dc:language>Japonés</dc:language>
        <dc:publisher>
          <cc:Agent>
            <dc:title>leojim06</dc:title>
          </cc:Agent>
        </dc:publisher>
      </cc:Work>
    </rdf:RDF>
  </metadata>
  <g
     id="text4702"
     style="font-style:normal;font-variant:normal;font-weight:bold;font-stretch:normal;font-size:25.39999962px;line-height:100%;font-family:Roboto;-inkscape-font-specification:'Roboto, Bold';text-align:start;letter-spacing:0px;word-spacing:0px;writing-mode:lr-tb;text-anchor:start;fill:#000000;fill-opacity:1;stroke:none;stroke-width:0.26458332px;stroke-linecap:butt;stroke-linejoin:miter;stroke-opacity:1"
     aria-label="の">
    <path
       id="path4704"
       style="stroke-width:0.26458332px"
       d="m 18.074348,11.525911 q -1.686719,9.921875 -4.067969,12.303125 -1.289843,1.289844 -2.678906,1.289844 -1.5874999,0 -2.4804687,-0.892969 -2.3812499,-2.38125 -2.3812499,-5.953125 0,-4.365625 3.0757812,-7.441406 3.3734374,-3.3734375 8.2351564,-3.3734375 4.365625,0 6.846093,2.4804687 2.778125,2.7781248 2.778125,6.5484378 0,4.067968 -2.579687,6.647656 -1.686719,1.686718 -5.159375,3.274218 L 17.578254,24.32513 q 3.472656,-1.091407 5.457031,-3.075781 1.885157,-1.885157 1.885157,-4.564063 0,-3.175 -2.083594,-5.258594 Q 20.753254,9.3430987 16.28841,9.5415362 l 1.785938,0.8929688 q 1.190625,0.496094 0,1.091406 z M 15.792317,9.6407549 q -2.579688,0.5953121 -4.464844,2.4804691 -2.5796874,2.579687 -2.5796874,6.35 0,2.282031 1.4882814,3.770312 0.297656,0.297656 0.892969,0.297656 0.595312,0 1.289843,-0.694531 2.282032,-2.282031 3.373438,-12.2039061 z" />
  </g>
</svg>
