<?xml version="1.0" encoding="UTF-8" standalone="no"?>
<svg
   xmlns:dc="http://purl.org/dc/elements/1.1/"
   xmlns:cc="http://creativecommons.org/ns#"
   xmlns:rdf="http://www.w3.org/1999/02/22-rdf-syntax-ns#"
   xmlns:svg="http://www.w3.org/2000/svg"
   xmlns="http://www.w3.org/2000/svg"
   width="128"
   height="128"
   viewBox="0 0 33.866665 33.866667"
   version="1.1"
   id="svg8">
  <title
     id="title4729">ひ</title>
  <defs
     id="defs2" />
  <metadata
     id="metadata5">
    <rdf:RDF>
      <cc:Work
         rdf:about="">
        <dc:format>image/svg+xml</dc:format>
        <dc:type
           rdf:resource="http://purl.org/dc/dcmitype/StillImage" />
        <dc:title>ひ</dc:title>
        <dc:creator>
          <cc:Agent>
            <dc:title>Oscar Javier Jiménez Mejía</dc:title>
          </cc:Agent>
        </dc:creator>
        <dc:rights>
          <cc:Agent>
            <dc:title>leojim06</dc:title>
          </cc:Agent>
        </dc:rights>
        <dc:language>Japonés</dc:language>
        <dc:publisher>
          <cc:Agent>
            <dc:title>leojim06</dc:title>
          </cc:Agent>
        </dc:publisher>
      </cc:Work>
    </rdf:RDF>
  </metadata>
  <g
     id="text4724"
     style="font-style:normal;font-variant:normal;font-weight:bold;font-stretch:normal;font-size:25.39999962px;line-height:100%;font-family:Roboto;-inkscape-font-specification:'Roboto, Bold';text-align:start;letter-spacing:0px;word-spacing:0px;writing-mode:lr-tb;text-anchor:start;fill:#000000;fill-opacity:1;stroke:none;stroke-width:0.26458332px;stroke-linecap:butt;stroke-linejoin:miter;stroke-opacity:1"
     aria-label="ひ">
    <path
       id="path4726"
       style="stroke-width:0.26458332px"
       d="m 14.899348,9.0454413 q -0.79375,0.1984375 -1.190625,0.79375 -3.671094,5.4570307 -3.671094,9.4257807 0,2.678907 1.488282,4.167188 1.091406,1.091406 3.472656,1.091406 2.182812,0 3.373437,-1.190625 1.885156,-1.885156 1.885156,-7.441406 0,-4.7625 -0.694531,-7.7390624 l 2.480469,-0.2976563 q 0.09922,2.3812497 0.992187,4.8617187 1.190625,3.175 4.564063,6.945312 l -1.785938,1.785938 q -1.686718,-2.083594 -3.671093,-6.052344 0.09922,0.892969 0.09922,1.885156 0,5.457032 -2.182812,7.639844 -1.885156,1.885156 -5.258594,1.885156 -3.175,0 -4.9609371,-1.785937 -1.984375,-1.984375 -1.984375,-5.159375 0,-4.464844 3.3734371,-9.822656 -2.2820309,0.595312 -4.4648433,1.091406 L 6.2673169,8.7477851 Q 10.930598,8.3509101 13.609504,7.0610663 Z" />
  </g>
</svg>
