<?xml version="1.0" encoding="UTF-8" standalone="no"?>
<svg
   xmlns:dc="http://purl.org/dc/elements/1.1/"
   xmlns:cc="http://creativecommons.org/ns#"
   xmlns:rdf="http://www.w3.org/1999/02/22-rdf-syntax-ns#"
   xmlns:svg="http://www.w3.org/2000/svg"
   xmlns="http://www.w3.org/2000/svg"
   width="128"
   height="128"
   viewBox="0 0 33.866665 33.866667"
   version="1.1"
   id="svg8">
  <title
     id="title4740">ふ</title>
  <defs
     id="defs2" />
  <metadata
     id="metadata5">
    <rdf:RDF>
      <cc:Work
         rdf:about="">
        <dc:format>image/svg+xml</dc:format>
        <dc:type
           rdf:resource="http://purl.org/dc/dcmitype/StillImage" />
        <dc:title>ふ</dc:title>
        <dc:creator>
          <cc:Agent>
            <dc:title>Oscar Javier Jiménez Mejía</dc:title>
          </cc:Agent>
        </dc:creator>
        <dc:rights>
          <cc:Agent>
            <dc:title>leojim06</dc:title>
          </cc:Agent>
        </dc:rights>
        <dc:language>Japonés</dc:language>
        <dc:publisher>
          <cc:Agent>
            <dc:title>leojim06</dc:title>
          </cc:Agent>
        </dc:publisher>
      </cc:Work>
    </rdf:RDF>
  </metadata>
  <g
     id="text4735"
     style="font-style:normal;font-variant:normal;font-weight:bold;font-stretch:normal;font-size:25.39999962px;line-height:100%;font-family:Roboto;-inkscape-font-specification:'Roboto, Bold';text-align:start;letter-spacing:0px;word-spacing:0px;writing-mode:lr-tb;text-anchor:start;fill:#000000;fill-opacity:1;stroke:none;stroke-width:0.26458332px;stroke-linecap:butt;stroke-linejoin:miter;stroke-opacity:1"
     aria-label="ふ">
    <path
       id="path4737"
       style="stroke-width:0.26458332px"
       d="m 12.270051,23.729816 q 2.480469,1.190625 3.869531,1.190625 1.190625,0 1.686719,-0.496093 0.595313,-0.595313 0.595313,-2.083594 0,-1.5875 -0.892969,-2.480469 -1.190625,-1.190625 -2.678906,-1.885156 -2.38125,-1.091406 -2.877344,-1.5875 -0.496094,-0.496094 -0.496094,-1.389062 0,-0.892969 0.892969,-2.579688 l 2.480469,0.992188 q -0.79375,1.091406 -0.79375,1.488281 0,0.297656 1.091406,0.79375 3.075781,1.389062 4.167187,2.480469 1.5875,1.5875 1.5875,4.167187 0,2.579687 -1.289843,3.869531 -1.190625,1.190625 -3.472657,1.190625 -1.984375,0 -4.564062,-1.289844 z m 0.595313,-3.571874 Q 9.0950513,23.233723 7.0114575,25.416535 L 5.3247388,23.729816 Q 8.003645,21.150129 10.980207,18.66966 Z m 5.953125,-8.830469 q -4.7625,-1.6867188 -6.746875,-2.8773438 l 1.190625,-1.984375 q 3.175,1.6867188 6.647656,2.6789062 z m 7.838281,12.600781 q -2.778125,-4.266406 -4.960938,-6.35 L 23.48177,16.28841 q 3.175,2.976563 5.060156,6.250781 z" />
  </g>
</svg>
