<?xml version="1.0" encoding="UTF-8" standalone="no"?>
<svg
   xmlns:dc="http://purl.org/dc/elements/1.1/"
   xmlns:cc="http://creativecommons.org/ns#"
   xmlns:rdf="http://www.w3.org/1999/02/22-rdf-syntax-ns#"
   xmlns:svg="http://www.w3.org/2000/svg"
   xmlns="http://www.w3.org/2000/svg"
   width="128"
   height="128"
   viewBox="0 0 33.866665 33.866667"
   version="1.1"
   id="svg8">
  <title
     id="title4773">ま</title>
  <defs
     id="defs2" />
  <metadata
     id="metadata5">
    <rdf:RDF>
      <cc:Work
         rdf:about="">
        <dc:format>image/svg+xml</dc:format>
        <dc:type
           rdf:resource="http://purl.org/dc/dcmitype/StillImage" />
        <dc:title>ま</dc:title>
        <dc:creator>
          <cc:Agent>
            <dc:title>Oscar Javier Jiménez Mejía</dc:title>
          </cc:Agent>
        </dc:creator>
        <dc:rights>
          <cc:Agent>
            <dc:title>leojim06</dc:title>
          </cc:Agent>
        </dc:rights>
        <dc:language>Japonés</dc:language>
        <dc:publisher>
          <cc:Agent>
            <dc:title>leojim06</dc:title>
          </cc:Agent>
        </dc:publisher>
      </cc:Work>
    </rdf:RDF>
  </metadata>
  <g
     id="text4768"
     style="font-style:normal;font-variant:normal;font-weight:bold;font-stretch:normal;font-size:25.39999962px;line-height:100%;font-family:Roboto;-inkscape-font-specification:'Roboto, Bold';text-align:start;letter-spacing:0px;word-spacing:0px;writing-mode:lr-tb;text-anchor:start;fill:#000000;fill-opacity:1;stroke:none;stroke-width:0.26458332px;stroke-linecap:butt;stroke-linejoin:miter;stroke-opacity:1"
     aria-label="ま">
    <path
       id="path4770"
       style="stroke-width:0.26458332px"
       d="m 18.520832,20.852473 q 4.067969,0.892969 7.9375,2.778125 l -1.091406,2.182812 q -3.671094,-2.282031 -6.846094,-3.075781 0,2.579687 -1.289843,3.869531 -1.190625,1.190625 -3.869532,1.190625 -2.083593,0 -3.373437,-1.289844 -0.8929687,-0.892968 -0.8929687,-2.480468 0,-1.389063 0.9921877,-2.38125 1.289844,-1.289844 3.96875,-1.289844 0.79375,0 2.480468,0.09922 V 17.379817 L 8.9958326,17.578254 V 15.593879 L 16.536457,15.395442 V 11.922785 L 7.2098951,12.220442 V 10.236067 L 16.536457,9.9384104 V 6.0688792 h 1.785938 q 1.091406,0.1984375 0.198437,0.79375 V 9.7399729 L 26.65677,9.4423167 v 1.9843753 l -8.135938,0.297656 v 3.571875 l 6.449219,-0.198438 v 1.984375 l -6.449219,0.198438 z m -2.083593,1.488281 q -1.091407,-0.198438 -2.182813,-0.198438 -1.984375,0 -2.778125,0.79375 -0.496093,0.496094 -0.496093,1.289844 0,0.595313 0.496093,1.091406 0.694532,0.694532 2.182813,0.694532 1.190625,0 1.984375,-0.79375 0.892968,-0.892969 0.79375,-2.877344 z" />
  </g>
</svg>
