<?xml version="1.0" encoding="UTF-8" standalone="no"?>
<svg
   xmlns:dc="http://purl.org/dc/elements/1.1/"
   xmlns:cc="http://creativecommons.org/ns#"
   xmlns:rdf="http://www.w3.org/1999/02/22-rdf-syntax-ns#"
   xmlns:svg="http://www.w3.org/2000/svg"
   xmlns="http://www.w3.org/2000/svg"
   width="128"
   height="128"
   viewBox="0 0 33.866665 33.866667"
   version="1.1"
   id="svg8">
  <title
     id="title4784">み</title>
  <defs
     id="defs2" />
  <metadata
     id="metadata5">
    <rdf:RDF>
      <cc:Work
         rdf:about="">
        <dc:format>image/svg+xml</dc:format>
        <dc:type
           rdf:resource="http://purl.org/dc/dcmitype/StillImage" />
        <dc:title>み</dc:title>
        <dc:creator>
          <cc:Agent>
            <dc:title>Oscar Javier Jiménez Mejía</dc:title>
          </cc:Agent>
        </dc:creator>
        <dc:rights>
          <cc:Agent>
            <dc:title>leojim06</dc:title>
          </cc:Agent>
        </dc:rights>
        <dc:language>Japonés</dc:language>
        <dc:publisher>
          <cc:Agent>
            <dc:title>leojim06</dc:title>
          </cc:Agent>
        </dc:publisher>
      </cc:Work>
    </rdf:RDF>
  </metadata>
  <g
     id="text4779"
     style="font-style:normal;font-variant:normal;font-weight:bold;font-stretch:normal;font-size:25.39999962px;line-height:100%;font-family:Roboto;-inkscape-font-specification:'Roboto, Bold';text-align:start;letter-spacing:0px;word-spacing:0px;writing-mode:lr-tb;text-anchor:start;fill:#000000;fill-opacity:1;stroke:none;stroke-width:0.26458332px;stroke-linecap:butt;stroke-linejoin:miter;stroke-opacity:1"
     aria-label="み">
    <path
       id="path4781"
       style="stroke-width:0.26458332px"
       d="m 23.630598,19.314582 q -0.992187,4.464843 -3.869531,7.639843 L 17.677473,25.7638 q 3.075781,-2.877343 4.067969,-7.143749 -3.472656,-1.289844 -7.044531,-1.785938 -2.678906,5.754687 -3.571875,6.647656 -1.1906251,1.190625 -2.7781251,1.190625 -1.190625,0 -1.984375,-0.79375 -0.8929687,-0.892969 -0.8929687,-2.678906 0,-2.083594 1.984375,-4.067969 2.1828124,-2.182812 5.8539058,-2.182812 1.190625,-3.075781 2.182813,-5.7546876 -2.778125,0.6945313 -5.5562501,1.2898436 L 9.0454421,8.4997382 Q 12.319661,8.1028632 15.296223,7.408332 l 1.190625,-0.4960938 1.686719,1.2898437 q 0.992187,0.5953125 -0.09922,0.8929688 -1.289843,2.2820313 -2.778125,5.9531253 3.175,0.396875 6.746875,1.5875 0.198438,-2.38125 0.09922,-5.853907 l 1.885156,0.396875 q 1.091406,0.198438 0.198438,0.79375 0,3.274219 -0.198438,5.357813 1.885156,0.694531 4.365625,1.984375 l -0.992187,1.984375 Q 25.317317,20.108332 23.630598,19.314582 Z M 12.617317,16.834113 q -2.282031,0 -3.6710936,1.389063 -1.5875,1.5875 -1.5875,2.976562 0,0.595312 0.396875,0.992187 0.2976562,0.297657 0.8929687,0.297657 0.8929688,0 1.5874999,-1.091407 0.595313,-0.892968 2.38125,-4.564062 z" />
  </g>
</svg>
