<?xml version="1.0" encoding="UTF-8" standalone="no"?>
<svg
   xmlns:dc="http://purl.org/dc/elements/1.1/"
   xmlns:cc="http://creativecommons.org/ns#"
   xmlns:rdf="http://www.w3.org/1999/02/22-rdf-syntax-ns#"
   xmlns:svg="http://www.w3.org/2000/svg"
   xmlns="http://www.w3.org/2000/svg"
   width="128"
   height="128"
   viewBox="0 0 33.866665 33.866667"
   version="1.1"
   id="svg8">
  <title
     id="title4792">む</title>
  <defs
     id="defs2" />
  <metadata
     id="metadata5">
    <rdf:RDF>
      <cc:Work
         rdf:about="">
        <dc:format>image/svg+xml</dc:format>
        <dc:type
           rdf:resource="http://purl.org/dc/dcmitype/StillImage" />
        <dc:title>む</dc:title>
        <dc:creator>
          <cc:Agent>
            <dc:title>Oscar Javier Jiménez Mejía</dc:title>
          </cc:Agent>
        </dc:creator>
        <dc:rights>
          <cc:Agent>
            <dc:title>leojim06</dc:title>
          </cc:Agent>
        </dc:rights>
        <dc:language>Japonés</dc:language>
        <dc:publisher>
          <cc:Agent>
            <dc:title>leojim06</dc:title>
          </cc:Agent>
        </dc:publisher>
      </cc:Work>
    </rdf:RDF>
  </metadata>
  <g
     id="text4801"
     style="font-style:normal;font-variant:normal;font-weight:bold;font-stretch:normal;font-size:25.39999962px;line-height:100%;font-family:Roboto;-inkscape-font-specification:'Roboto, Bold';text-align:start;letter-spacing:0px;word-spacing:0px;writing-mode:lr-tb;text-anchor:start;fill:#000000;fill-opacity:1;stroke:none;stroke-width:0.26458332px;stroke-linecap:butt;stroke-linejoin:miter;stroke-opacity:1"
     aria-label="む">
    <path
       id="path4803"
       style="stroke-width:0.26458332px"
       d="m 10.583333,23.283333 q -0.7937504,0.396875 -1.3890629,0.396875 -1.1906249,0 -2.0835937,-0.892969 -1.0914062,-1.091406 -1.0914062,-3.075781 0,-2.38125 1.2898437,-3.671094 1.0914063,-1.091406 2.7781251,-1.091406 0.892969,0 1.5875,0.297656 V 12.369271 L 6.7138014,12.865364 6.3169264,10.781771 11.674739,10.384896 V 6.1184894 h 1.885156 q 0.79375,0.2976562 0.09922,0.6945312 v 3.3734374 l 4.464844,-0.3968749 0.297656,1.9843749 -4.7625,0.396875 v 4.564062 q 0.396875,0.595313 0.396875,1.289844 0,1.885156 -1.488281,3.770313 l 0.198437,2.579687 q 0.09922,1.488281 2.38125,1.488281 h 5.060156 q 2.083594,0 2.083594,-1.984375 v -3.869531 l 1.984375,0.396875 v 3.869531 q 0,3.472657 -3.671094,3.472657 h -5.457031 q -3.96875,0 -4.365625,-2.877344 z m 15.974218,-6.647656 q -3.075781,-2.976563 -5.55625,-4.663281 l 1.190625,-1.785938 q 3.571875,2.480469 5.655469,4.663281 z m -16.470312,0 q -0.8929689,0 -1.4882813,0.595312 -0.6945313,0.694531 -0.6945313,2.480469 0,1.190625 0.5953125,1.785937 0.2976563,0.297657 0.8929687,0.297657 0.7937504,0 1.3890624,-0.595313 0.992188,-0.992187 0.992188,-2.38125 0,-1.289844 -0.297657,-1.5875 -0.595312,-0.595312 -1.389062,-0.595312 z" />
  </g>
</svg>
