<?xml version="1.0" encoding="UTF-8" standalone="no"?>
<svg
   xmlns:dc="http://purl.org/dc/elements/1.1/"
   xmlns:cc="http://creativecommons.org/ns#"
   xmlns:rdf="http://www.w3.org/1999/02/22-rdf-syntax-ns#"
   xmlns:svg="http://www.w3.org/2000/svg"
   xmlns="http://www.w3.org/2000/svg"
   width="128"
   height="128"
   viewBox="0 0 33.866665 33.866667"
   version="1.1"
   id="svg8">
  <title
     id="title4826">も</title>
  <defs
     id="defs2" />
  <metadata
     id="metadata5">
    <rdf:RDF>
      <cc:Work
         rdf:about="">
        <dc:format>image/svg+xml</dc:format>
        <dc:type
           rdf:resource="http://purl.org/dc/dcmitype/StillImage" />
        <dc:title>も</dc:title>
        <dc:creator>
          <cc:Agent>
            <dc:title>Oscar Javier Jiménez Mejía</dc:title>
          </cc:Agent>
        </dc:creator>
        <dc:rights>
          <cc:Agent>
            <dc:title>leojim06</dc:title>
          </cc:Agent>
        </dc:rights>
        <dc:language>Japonés</dc:language>
        <dc:publisher>
          <cc:Agent>
            <dc:title>leojim06</dc:title>
          </cc:Agent>
        </dc:publisher>
      </cc:Work>
    </rdf:RDF>
  </metadata>
  <g
     id="text4821"
     style="font-style:normal;font-variant:normal;font-weight:bold;font-stretch:normal;font-size:25.39999962px;line-height:100%;font-family:Roboto;-inkscape-font-specification:'Roboto, Bold';text-align:start;letter-spacing:0px;word-spacing:0px;writing-mode:lr-tb;text-anchor:start;fill:#000000;fill-opacity:1;stroke:none;stroke-width:0.26458332px;stroke-linecap:butt;stroke-linejoin:miter;stroke-opacity:1"
     aria-label="も">
    <path
       id="path4823"
       style="stroke-width:0.26458332px"
       d="m 15.147395,21.547003 q -0.198438,2.182813 0.892969,3.274219 1.091406,1.091406 3.075781,1.091406 2.579687,0 3.472656,-0.892969 0.892969,-0.892968 0.892969,-2.976562 0,-1.488281 -0.595313,-3.571875 l 2.083594,-0.297656 q 0.694531,2.778125 0.694531,3.770312 0,3.075781 -1.488281,4.564063 -1.5875,1.5875 -5.159375,1.5875 -2.877344,0 -4.564062,-1.686719 -1.5875,-1.5875 -1.389063,-4.365625 l 0.198438,-2.976562 H 8.2020826 V 17.181378 H 13.559895 L 13.95677,13.311847 H 9.2934888 v -1.885156 h 4.9609372 l 0.496094,-5.6554688 2.182812,0.2976563 q 1.091407,0.2976562 0.198438,0.79375 l -0.79375,4.5640625 h 3.869531 v 1.885156 h -4.167187 l -0.396875,3.869531 h 4.7625 v 1.885157 h -5.060157 z" />
  </g>
</svg>
