<?xml version="1.0" encoding="UTF-8" standalone="no"?>
<svg
   xmlns:dc="http://purl.org/dc/elements/1.1/"
   xmlns:cc="http://creativecommons.org/ns#"
   xmlns:rdf="http://www.w3.org/1999/02/22-rdf-syntax-ns#"
   xmlns:svg="http://www.w3.org/2000/svg"
   xmlns="http://www.w3.org/2000/svg"
   width="128"
   height="128"
   viewBox="0 0 33.866665 33.866667"
   version="1.1"
   id="svg8">
  <title
     id="title4837">や</title>
  <defs
     id="defs2" />
  <metadata
     id="metadata5">
    <rdf:RDF>
      <cc:Work
         rdf:about="">
        <dc:format>image/svg+xml</dc:format>
        <dc:type
           rdf:resource="http://purl.org/dc/dcmitype/StillImage" />
        <dc:title>や</dc:title>
        <dc:creator>
          <cc:Agent>
            <dc:title>Oscar Javier Jiménez Mejía</dc:title>
          </cc:Agent>
        </dc:creator>
        <dc:rights>
          <cc:Agent>
            <dc:title>leojim06</dc:title>
          </cc:Agent>
        </dc:rights>
        <dc:language>Japonés</dc:language>
        <dc:publisher>
          <cc:Agent>
            <dc:title>leojim06</dc:title>
          </cc:Agent>
        </dc:publisher>
      </cc:Work>
    </rdf:RDF>
  </metadata>
  <g
     id="text4832"
     style="font-style:normal;font-variant:normal;font-weight:bold;font-stretch:normal;font-size:25.39999962px;line-height:100%;font-family:Roboto;-inkscape-font-specification:'Roboto, Bold';text-align:start;letter-spacing:0px;word-spacing:0px;writing-mode:lr-tb;text-anchor:start;fill:#000000;fill-opacity:1;stroke:none;stroke-width:0.26458332px;stroke-linecap:butt;stroke-linejoin:miter;stroke-opacity:1"
     aria-label="や">
    <path
       id="path4834"
       style="stroke-width:0.26458332px"
       d="M 11.277864,13.510286 Q 10.78177,11.327474 10.384895,7.4579425 h 2.083594 q 0.992187,0.1984375 0.198437,0.79375 0,1.5874999 0.595313,4.5640625 l 4.960937,-1.785938 0.198437,-4.564062 h 1.885157 q 1.091406,0.1984375 0.198437,0.79375 l -0.297656,3.373437 q 0.892969,-0.198437 1.785937,-0.198437 2.877344,0 4.365625,1.488281 1.5875,1.5875 1.5875,4.067969 0,2.38125 -1.190625,3.571875 -1.488281,1.488281 -3.869531,1.488281 -3.175,0 -5.060156,-1.686719 l 0.892969,-1.885156 q 2.182812,1.488281 3.96875,1.488281 1.5875,0 2.579687,-0.992187 0.595313,-0.595313 0.595313,-1.984375 0,-1.5875 -0.992188,-2.579688 -1.091406,-1.091406 -2.877344,-1.091406 -1.984375,0 -3.96875,0.79375 l -4.266406,1.686719 q 1.686719,6.449219 4.266406,11.707812 l -2.282031,0.892969 Q 13.460676,22.043099 11.773957,15.59388 L 7.0114574,17.578255 5.9200512,15.59388 Z" />
  </g>
</svg>
