<?xml version="1.0" encoding="UTF-8" standalone="no"?>
<svg
   xmlns:dc="http://purl.org/dc/elements/1.1/"
   xmlns:cc="http://creativecommons.org/ns#"
   xmlns:rdf="http://www.w3.org/1999/02/22-rdf-syntax-ns#"
   xmlns:svg="http://www.w3.org/2000/svg"
   xmlns="http://www.w3.org/2000/svg"
   width="128"
   height="128"
   viewBox="0 0 33.866665 33.866667"
   version="1.1"
   id="svg8">
  <title
     id="title4859">よ</title>
  <defs
     id="defs2" />
  <metadata
     id="metadata5">
    <rdf:RDF>
      <cc:Work
         rdf:about="">
        <dc:format>image/svg+xml</dc:format>
        <dc:type
           rdf:resource="http://purl.org/dc/dcmitype/StillImage" />
        <dc:title>よ</dc:title>
        <dc:creator>
          <cc:Agent>
            <dc:title>Oscar Javier Jiménez Mejía</dc:title>
          </cc:Agent>
        </dc:creator>
        <dc:rights>
          <cc:Agent>
            <dc:title>leojim06</dc:title>
          </cc:Agent>
        </dc:rights>
        <dc:language>Japonés</dc:language>
        <dc:publisher>
          <cc:Agent>
            <dc:title>leojim06</dc:title>
          </cc:Agent>
        </dc:publisher>
      </cc:Work>
    </rdf:RDF>
  </metadata>
  <g
     id="text4854"
     style="font-style:normal;font-variant:normal;font-weight:bold;font-stretch:normal;font-size:25.39999962px;line-height:100%;font-family:Roboto;-inkscape-font-specification:'Roboto, Bold';text-align:start;letter-spacing:0px;word-spacing:0px;writing-mode:lr-tb;text-anchor:start;fill:#000000;fill-opacity:1;stroke:none;stroke-width:0.26458332px;stroke-linecap:butt;stroke-linejoin:miter;stroke-opacity:1"
     aria-label="よ">
    <path
       id="path4856"
       style="stroke-width:0.26458332px"
       d="m 25.168489,25.366928 q -4.564063,-2.579688 -7.342188,-3.274219 -0.09922,2.579687 -1.190625,3.671094 -1.488281,1.488281 -4.266406,1.488281 -2.38125,0 -3.5718749,-1.190625 -1.0914063,-1.091406 -1.0914063,-2.579687 0,-1.488282 1.2898438,-2.778125 1.1906254,-1.190625 3.9687504,-1.190625 1.785937,0 2.877343,0.198437 -0.297656,-5.357812 -0.79375,-13.0968747 h 1.984375 q 0.892969,0.1984375 0.198438,0.7937499 0,1.5875 0.198437,4.8617188 2.678906,0.09922 7.540625,-0.595313 v 2.083594 q -3.472656,0.496094 -7.342187,0.595313 0.198437,2.976562 0.198437,5.655468 3.770313,0.892969 8.334375,3.274219 z m -9.425782,-3.770313 q -1.488281,-0.297656 -2.678906,-0.297656 -1.984375,0 -2.778125,0.79375 -0.6945309,0.694531 -0.6945309,1.389063 0,0.694531 0.4960939,1.190624 0.694531,0.694532 2.38125,0.694532 1.5875,0 2.282031,-0.694532 0.992187,-0.992187 0.992187,-3.075781 z" />
  </g>
</svg>
