<?xml version="1.0" encoding="UTF-8" standalone="no"?>
<svg
   xmlns:dc="http://purl.org/dc/elements/1.1/"
   xmlns:cc="http://creativecommons.org/ns#"
   xmlns:rdf="http://www.w3.org/1999/02/22-rdf-syntax-ns#"
   xmlns:svg="http://www.w3.org/2000/svg"
   xmlns="http://www.w3.org/2000/svg"
   width="128"
   height="128"
   viewBox="0 0 33.866665 33.866667"
   version="1.1"
   id="svg8">
  <title
     id="title4870">ら</title>
  <defs
     id="defs2" />
  <metadata
     id="metadata5">
    <rdf:RDF>
      <cc:Work
         rdf:about="">
        <dc:format>image/svg+xml</dc:format>
        <dc:type
           rdf:resource="http://purl.org/dc/dcmitype/StillImage" />
        <dc:title>ら</dc:title>
        <dc:creator>
          <cc:Agent>
            <dc:title>Oscar Javier Jiménez Mejía</dc:title>
          </cc:Agent>
        </dc:creator>
        <dc:rights>
          <cc:Agent>
            <dc:title>leojim06</dc:title>
          </cc:Agent>
        </dc:rights>
        <dc:language>Japonés</dc:language>
        <dc:publisher>
          <cc:Agent>
            <dc:title>leojim06</dc:title>
          </cc:Agent>
        </dc:publisher>
      </cc:Work>
    </rdf:RDF>
  </metadata>
  <g
     id="text4865"
     style="font-style:normal;font-variant:normal;font-weight:bold;font-stretch:normal;font-size:25.39999962px;line-height:100%;font-family:Roboto;-inkscape-font-specification:'Roboto, Bold';text-align:start;letter-spacing:0px;word-spacing:0px;writing-mode:lr-tb;text-anchor:start;fill:#000000;fill-opacity:1;stroke:none;stroke-width:0.26458332px;stroke-linecap:butt;stroke-linejoin:miter;stroke-opacity:1"
     aria-label="ら">
    <path
       id="path4867"
       style="stroke-width:0.26458332px"
       d="m 13.113411,25.317316 h 2.38125 q 4.960937,0 6.250781,-1.289843 1.091406,-1.091407 1.091406,-2.480469 0,-1.190625 -0.992187,-2.182812 -0.892969,-0.892969 -2.976563,-0.892969 -4.365625,0 -7.9375,4.266406 L 8.9462233,22.539191 10.03763,11.922785 12.121223,12.31966 q 0.992188,0.396875 0,0.79375 l -0.694531,6.449219 q 3.472656,-2.976562 7.9375,-2.976562 2.678906,0 4.266406,1.5875 1.289844,1.289843 1.289844,3.373437 0,2.282031 -1.686719,3.96875 -1.984375,1.984375 -7.540625,1.984375 H 13.907161 Z M 11.922786,6.3665355 q 2.778125,0.6945312 7.540625,2.3812499 L 18.471223,10.73216 Q 14.899348,9.2438792 11.029817,8.152473 Z" />
  </g>
</svg>
