<?xml version="1.0" encoding="UTF-8" standalone="no"?>
<svg
   xmlns:dc="http://purl.org/dc/elements/1.1/"
   xmlns:cc="http://creativecommons.org/ns#"
   xmlns:rdf="http://www.w3.org/1999/02/22-rdf-syntax-ns#"
   xmlns:svg="http://www.w3.org/2000/svg"
   xmlns="http://www.w3.org/2000/svg"
   width="128"
   height="128"
   viewBox="0 0 33.866665 33.866667"
   version="1.1"
   id="svg8">
  <title
     id="title4892">る</title>
  <defs
     id="defs2" />
  <metadata
     id="metadata5">
    <rdf:RDF>
      <cc:Work
         rdf:about="">
        <dc:format>image/svg+xml</dc:format>
        <dc:type
           rdf:resource="http://purl.org/dc/dcmitype/StillImage" />
        <dc:title>る</dc:title>
        <dc:creator>
          <cc:Agent>
            <dc:title>Oscar Javier Jiménez Mejía</dc:title>
          </cc:Agent>
        </dc:creator>
        <dc:rights>
          <cc:Agent>
            <dc:title>leojim06</dc:title>
          </cc:Agent>
        </dc:rights>
        <dc:language>Japonés</dc:language>
        <dc:publisher>
          <cc:Agent>
            <dc:title>leojim06</dc:title>
          </cc:Agent>
        </dc:publisher>
      </cc:Work>
    </rdf:RDF>
  </metadata>
  <g
     id="text4887"
     style="font-style:normal;font-variant:normal;font-weight:bold;font-stretch:normal;font-size:25.39999962px;line-height:100%;font-family:Roboto;-inkscape-font-specification:'Roboto, Bold';text-align:start;letter-spacing:0px;word-spacing:0px;writing-mode:lr-tb;text-anchor:start;fill:#000000;fill-opacity:1;stroke:none;stroke-width:0.26458332px;stroke-linecap:butt;stroke-linejoin:miter;stroke-opacity:1"
     aria-label="る">
    <path
       id="path4889"
       style="stroke-width:0.26458332px"
       d="m 20.25716,25.614973 q 1.5875,-0.198437 2.678907,-1.289844 1.190625,-1.190625 1.190625,-3.175 0,-2.182812 -1.289844,-3.472656 -1.289844,-1.289844 -4.067969,-1.289844 -3.274219,0 -5.060156,1.289844 -1.686719,1.190625 -4.365625,4.266406 L 7.6563793,20.455598 Q 14.800129,13.311848 18.471223,8.5493483 15.197004,8.9462233 11.922785,9.2438796 L 11.228254,6.9618484 q 4.861719,0 8.632031,-0.4960938 l 0.892969,-0.396875 1.091406,1.0914063 q 1.091407,0.9921874 -0.496093,1.2898437 -2.976563,3.3734374 -5.953125,6.6476564 2.083593,-0.496094 3.472656,-0.496094 3.770312,0 5.55625,1.785937 1.785937,1.785938 1.785937,4.564063 0,2.877344 -1.5875,4.464844 -2.38125,2.38125 -6.052343,2.38125 -3.472657,0 -5.060157,-1.5875 -1.289843,-1.289844 -1.289843,-3.075782 0,-1.190625 0.892968,-2.083593 0.992188,-0.992188 2.282032,-0.992188 1.785937,0 2.976562,1.190625 1.389063,1.389063 1.885156,4.365625 z m -1.984375,0.297656 q -0.297656,-2.579687 -1.190625,-3.472656 -0.694531,-0.694531 -1.389062,-0.694531 -0.79375,0 -1.190625,0.396875 -0.496094,0.496094 -0.496094,1.091406 0,0.892969 0.79375,1.686719 0.992188,0.992187 2.579688,0.992187 0.396875,0 0.892968,0 z" />
  </g>
</svg>
