<?xml version="1.0" encoding="UTF-8" standalone="no"?>
<svg
   xmlns:dc="http://purl.org/dc/elements/1.1/"
   xmlns:cc="http://creativecommons.org/ns#"
   xmlns:rdf="http://www.w3.org/1999/02/22-rdf-syntax-ns#"
   xmlns:svg="http://www.w3.org/2000/svg"
   xmlns="http://www.w3.org/2000/svg"
   width="128"
   height="128"
   viewBox="0 0 33.866665 33.866667"
   version="1.1"
   id="svg8">
  <title
     id="title4903">れ</title>
  <defs
     id="defs2" />
  <metadata
     id="metadata5">
    <rdf:RDF>
      <cc:Work
         rdf:about="">
        <dc:format>image/svg+xml</dc:format>
        <dc:type
           rdf:resource="http://purl.org/dc/dcmitype/StillImage" />
        <dc:title>れ</dc:title>
        <dc:creator>
          <cc:Agent>
            <dc:title>Oscar Javier Jiménez Mejía</dc:title>
          </cc:Agent>
        </dc:creator>
        <dc:rights>
          <cc:Agent>
            <dc:title>leojim06</dc:title>
          </cc:Agent>
        </dc:rights>
        <dc:language>Japonés</dc:language>
        <dc:publisher>
          <cc:Agent>
            <dc:title>leojim06</dc:title>
          </cc:Agent>
        </dc:publisher>
      </cc:Work>
    </rdf:RDF>
  </metadata>
  <g
     id="text4898"
     style="font-style:normal;font-variant:normal;font-weight:bold;font-stretch:normal;font-size:25.39999962px;line-height:100%;font-family:Roboto;-inkscape-font-specification:'Roboto, Bold';text-align:start;letter-spacing:0px;word-spacing:0px;writing-mode:lr-tb;text-anchor:start;fill:#000000;fill-opacity:1;stroke:none;stroke-width:0.26458332px;stroke-linecap:butt;stroke-linejoin:miter;stroke-opacity:1"
     aria-label="れ">
    <path
       id="path4900"
       style="stroke-width:0.26458332px"
       d="m 20.802864,14.998566 q 0.09922,-1.885156 -1.091407,-1.885156 -1.686718,0 -6.548437,4.861719 v 9.921875 h -1.984375 v -8.135938 l -4.3656249,5.457031 -1.5875,-1.5875 3.96875,-4.663281 q 1.0914059,-1.389062 1.9843749,-2.877344 v -2.38125 L 6.8130201,15.197004 6.2177076,13.11341 11.178645,11.823566 V 5.9696601 h 1.785938 q 0.892968,0.1984375 0.198437,0.79375 v 4.4648439 l 1.091406,0.595312 q 0.892969,0.396875 -0.198437,0.892969 l -0.892969,1.885156 v 0.694531 q 4.663281,-4.365624 7.044531,-4.365624 2.976563,0 2.678906,3.968749 l -0.496093,7.639844 q -0.09922,1.5875 1.190625,1.5875 1.289843,0 1.885156,-0.694531 0.892969,-1.091406 1.488281,-2.579688 l 1.686719,1.389063 q -0.992188,1.885156 -1.885156,2.778125 -1.289844,1.289844 -2.976563,1.289844 -3.671094,0 -3.472656,-3.770313 z" />
  </g>
</svg>
