<?xml version="1.0" encoding="UTF-8" standalone="no"?>
<svg
   xmlns:dc="http://purl.org/dc/elements/1.1/"
   xmlns:cc="http://creativecommons.org/ns#"
   xmlns:rdf="http://www.w3.org/1999/02/22-rdf-syntax-ns#"
   xmlns:svg="http://www.w3.org/2000/svg"
   xmlns="http://www.w3.org/2000/svg"
   width="128"
   height="128"
   viewBox="0 0 33.866665 33.866667"
   version="1.1"
   id="svg8">
  <title
     id="title4914">ろ</title>
  <defs
     id="defs2" />
  <metadata
     id="metadata5">
    <rdf:RDF>
      <cc:Work
         rdf:about="">
        <dc:format>image/svg+xml</dc:format>
        <dc:type
           rdf:resource="http://purl.org/dc/dcmitype/StillImage" />
        <dc:title>ろ</dc:title>
        <dc:creator>
          <cc:Agent>
            <dc:title>Oscar Javier Jiménez Mejía</dc:title>
          </cc:Agent>
        </dc:creator>
        <dc:rights>
          <cc:Agent>
            <dc:title>leojim06</dc:title>
          </cc:Agent>
        </dc:rights>
        <dc:language>Japonés</dc:language>
        <dc:publisher>
          <cc:Agent>
            <dc:title>leojim06</dc:title>
          </cc:Agent>
        </dc:publisher>
      </cc:Work>
    </rdf:RDF>
  </metadata>
  <g
     id="text4909"
     style="font-style:normal;font-variant:normal;font-weight:bold;font-stretch:normal;font-size:25.39999962px;line-height:100%;font-family:Roboto;-inkscape-font-specification:'Roboto, Bold';text-align:start;letter-spacing:0px;word-spacing:0px;writing-mode:lr-tb;text-anchor:start;fill:#000000;fill-opacity:1;stroke:none;stroke-width:0.26458332px;stroke-linecap:butt;stroke-linejoin:miter;stroke-opacity:1"
     aria-label="ろ">
    <path
       id="path4911"
       style="stroke-width:0.26458332px"
       d="m 13.460676,25.11888 q 7.441406,0.09922 9.326563,-1.785938 1.091406,-1.091406 1.091406,-2.778125 0,-1.885156 -0.992188,-2.877343 -1.091406,-1.091407 -3.671093,-1.091407 -6.052344,0 -9.624219,5.258594 L 7.9044263,20.157942 q 6.4492187,-6.35 9.3265627,-11.1124995 -3.274219,0.4960937 -6.548438,0.8929687 L 9.98802,7.65638 q 3.571875,0 8.632031,-0.6945313 l 0.694531,-0.2976562 1.190625,1.0914062 q 0.892969,0.8929688 -0.297656,1.0914063 -2.678906,3.472656 -5.258594,6.746875 2.877344,-0.79375 4.663282,-0.79375 3.175,0 4.861718,1.686719 1.488282,1.488281 1.488282,4.067968 0,2.579688 -1.5875,4.167188 -2.38125,2.38125 -9.921875,2.480468 z" />
  </g>
</svg>
