<?xml version="1.0" encoding="UTF-8" standalone="no"?>
<svg
   xmlns:dc="http://purl.org/dc/elements/1.1/"
   xmlns:cc="http://creativecommons.org/ns#"
   xmlns:rdf="http://www.w3.org/1999/02/22-rdf-syntax-ns#"
   xmlns:svg="http://www.w3.org/2000/svg"
   xmlns="http://www.w3.org/2000/svg"
   width="128"
   height="128"
   viewBox="0 0 33.866665 33.866667"
   version="1.1"
   id="svg8">
  <title
     id="title4925">わ</title>
  <defs
     id="defs2" />
  <metadata
     id="metadata5">
    <rdf:RDF>
      <cc:Work
         rdf:about="">
        <dc:format>image/svg+xml</dc:format>
        <dc:type
           rdf:resource="http://purl.org/dc/dcmitype/StillImage" />
        <dc:title>わ</dc:title>
        <dc:creator>
          <cc:Agent>
            <dc:title>Oscar Javier Jiménez Mejía</dc:title>
          </cc:Agent>
        </dc:creator>
        <dc:rights>
          <cc:Agent>
            <dc:title>leojim06</dc:title>
          </cc:Agent>
        </dc:rights>
        <dc:language>Japonés</dc:language>
        <dc:publisher>
          <cc:Agent>
            <dc:title>leojim06</dc:title>
          </cc:Agent>
        </dc:publisher>
      </cc:Work>
    </rdf:RDF>
  </metadata>
  <g
     id="text4920"
     style="font-style:normal;font-variant:normal;font-weight:bold;font-stretch:normal;font-size:25.39999962px;line-height:100%;font-family:Roboto;-inkscape-font-specification:'Roboto, Bold';text-align:start;letter-spacing:0px;word-spacing:0px;writing-mode:lr-tb;text-anchor:start;fill:#000000;fill-opacity:1;stroke:none;stroke-width:0.26458332px;stroke-linecap:butt;stroke-linejoin:miter;stroke-opacity:1"
     aria-label="わ">
    <path
       id="path4922"
       style="stroke-width:0.26458332px"
       d="M 11.377083,19.463411 7.309114,24.32513 5.7216141,22.73763 8.4005203,19.761067 Q 10.384895,17.479036 11.377083,15.693099 V 13.21263 L 6.7138015,14.403255 6.118489,12.319661 11.377083,11.327474 V 5.5727863 h 1.785937 q 1.091406,0.1984375 0.198438,0.7937499 v 4.0679688 l 1.488281,0.892969 q 0.992187,0.496093 -0.297656,1.091406 l -1.190625,1.686719 v 1.190625 q 4.365625,-3.472657 8.334375,-3.472657 2.976562,0 4.564062,1.5875 1.885156,1.885157 1.885156,4.861719 0,3.075781 -1.686719,4.7625 -2.182812,2.182812 -6.449218,3.770312 l -0.992188,-1.984375 q 3.770313,-1.389062 5.457032,-3.075781 1.389062,-1.389062 1.389062,-3.472656 0,-2.083594 -1.389062,-3.472656 -1.091407,-1.091406 -2.976563,-1.091406 -3.571875,0 -8.135937,4.167187 V 28.29388 h -1.984375 z" />
  </g>
</svg>
