<?xml version="1.0" encoding="UTF-8" standalone="no"?>
<svg
   xmlns:dc="http://purl.org/dc/elements/1.1/"
   xmlns:cc="http://creativecommons.org/ns#"
   xmlns:rdf="http://www.w3.org/1999/02/22-rdf-syntax-ns#"
   xmlns:svg="http://www.w3.org/2000/svg"
   xmlns="http://www.w3.org/2000/svg"
   width="128"
   height="128"
   viewBox="0 0 33.866665 33.866667"
   version="1.1"
   id="svg8">
  <title
     id="title4936">ゐ</title>
  <defs
     id="defs2" />
  <metadata
     id="metadata5">
    <rdf:RDF>
      <cc:Work
         rdf:about="">
        <dc:format>image/svg+xml</dc:format>
        <dc:type
           rdf:resource="http://purl.org/dc/dcmitype/StillImage" />
        <dc:title>ゐ</dc:title>
        <dc:creator>
          <cc:Agent>
            <dc:title>Oscar Javier Jiménez Mejía</dc:title>
          </cc:Agent>
        </dc:creator>
        <dc:rights>
          <cc:Agent>
            <dc:title>leojim06</dc:title>
          </cc:Agent>
        </dc:rights>
        <dc:language>Japonés</dc:language>
        <dc:publisher>
          <cc:Agent>
            <dc:title>leojim06</dc:title>
          </cc:Agent>
        </dc:publisher>
      </cc:Work>
    </rdf:RDF>
  </metadata>
  <g
     id="text4931"
     style="font-style:normal;font-variant:normal;font-weight:bold;font-stretch:normal;font-size:25.39999962px;line-height:100%;font-family:Roboto;-inkscape-font-specification:'Roboto, Bold';text-align:start;letter-spacing:0px;word-spacing:0px;writing-mode:lr-tb;text-anchor:start;fill:#000000;fill-opacity:1;stroke:none;stroke-width:0.26458332px;stroke-linecap:butt;stroke-linejoin:miter;stroke-opacity:1"
     aria-label="ゐ">
    <path
       id="path4933"
       style="stroke-width:0.26458332px"
       d="m 16.982942,12.914973 q 1.190625,-0.198438 2.182812,-0.198438 4.365625,0 6.548438,2.182813 1.785937,1.785937 1.785937,5.357812 0,3.472656 -1.885156,5.357813 -1.785937,1.785937 -4.960937,1.785937 -2.480469,0 -3.671094,-1.190625 -0.992187,-0.992187 -0.992187,-2.480469 0,-1.488281 0.694531,-2.182812 1.091406,-1.091406 2.480468,-1.091406 1.885157,0 3.075782,1.190625 0.992187,0.992187 1.686718,2.579687 1.488282,-1.5875 1.488282,-3.770312 0,-2.778125 -1.5875,-4.365625 -1.488282,-1.488281 -4.861719,-1.488281 -1.190625,0 -2.38125,0.198437 -1.984375,8.532812 -4.564062,11.1125 -0.694532,0.694531 -2.0835941,0.694531 -1.3890625,0 -2.1828125,-0.79375 -1.3890625,-1.389062 -1.3890625,-3.571875 0,-2.976562 2.9765625,-5.953125 2.2820316,-2.282031 5.6554686,-3.175 L 15.990755,8.7477854 Q 12.914973,9.2438792 9.8391921,9.6407542 V 7.4579417 q 2.9765629,0 6.4492189,-0.4960937 l 0.892969,-0.4960938 1.190624,1.0914063 q 0.892969,0.6945312 -0.09922,0.9921875 z m 5.060156,12.303125 q -0.496094,-1.686719 -1.091406,-2.282032 -0.79375,-0.79375 -1.686719,-0.79375 -0.595312,0 -1.091406,0.496094 -0.396875,0.396875 -0.396875,0.992188 0,0.79375 0.496094,1.289843 0.595312,0.595313 1.785937,0.595313 1.091406,0 1.984375,-0.297656 z m -11.1125,-1.289844 q 1.785938,-1.785938 3.571875,-8.73125 -2.282031,0.892969 -3.671093,2.282031 -2.3812504,2.38125 -2.3812504,4.663281 0,1.289844 0.5953125,1.885157 0.396875,0.396875 0.79375,0.396875 0.5953129,0 1.0914059,-0.496094 z" />
  </g>
</svg>
