<?xml version="1.0" encoding="UTF-8" standalone="no"?>
<svg
   xmlns:dc="http://purl.org/dc/elements/1.1/"
   xmlns:cc="http://creativecommons.org/ns#"
   xmlns:rdf="http://www.w3.org/1999/02/22-rdf-syntax-ns#"
   xmlns:svg="http://www.w3.org/2000/svg"
   xmlns="http://www.w3.org/2000/svg"
   width="128"
   height="128"
   viewBox="0 0 33.866665 33.866667"
   version="1.1"
   id="svg8">
  <title
     id="title4947">ゑ</title>
  <defs
     id="defs2" />
  <metadata
     id="metadata5">
    <rdf:RDF>
      <cc:Work
         rdf:about="">
        <dc:format>image/svg+xml</dc:format>
        <dc:type
           rdf:resource="http://purl.org/dc/dcmitype/StillImage" />
        <dc:title>ゑ</dc:title>
        <dc:creator>
          <cc:Agent>
            <dc:title>Oscar Javier Jiménez Mejía</dc:title>
          </cc:Agent>
        </dc:creator>
        <dc:rights>
          <cc:Agent>
            <dc:title>leojim06</dc:title>
          </cc:Agent>
        </dc:rights>
        <dc:language>Japonés</dc:language>
        <dc:publisher>
          <cc:Agent>
            <dc:title>leojim06</dc:title>
          </cc:Agent>
        </dc:publisher>
      </cc:Work>
    </rdf:RDF>
  </metadata>
  <g
     id="text4942"
     style="font-style:normal;font-variant:normal;font-weight:bold;font-stretch:normal;font-size:25.39999962px;line-height:100%;font-family:Roboto;-inkscape-font-specification:'Roboto, Bold';text-align:start;letter-spacing:0px;word-spacing:0px;writing-mode:lr-tb;text-anchor:start;fill:#000000;fill-opacity:1;stroke:none;stroke-width:0.26458332px;stroke-linecap:butt;stroke-linejoin:miter;stroke-opacity:1"
     aria-label="ゑ">
    <path
       id="path4944"
       style="stroke-width:0.26458332px"
       d="m 15.693098,11.525911 q 1.885156,-0.496094 3.770312,-0.496094 2.877344,0 4.167188,1.289844 0.992187,0.992187 0.992187,2.877343 0,2.083594 -1.289843,3.373438 -1.984375,1.984375 -7.838282,1.984375 -0.595312,0.396875 -3.175,2.678906 0.992188,-0.198437 1.389063,-0.198437 1.785937,0 2.778125,1.785937 0.595312,-0.694531 2.182812,-1.984375 1.984375,-1.5875 4.167188,-1.5875 2.480469,0 3.869531,1.389063 1.488281,1.488281 1.488281,2.778125 0,1.289843 -1.5875,0.892968 l -2.877343,1.190625 -0.992188,-0.892968 2.877344,-1.785938 q -0.09922,-0.396875 -0.694531,-0.992187 -0.694532,-0.694532 -2.282032,-0.694532 -1.488281,0 -3.373437,1.5875 -1.785938,1.488282 -2.38125,3.274219 L 14.70091,27.500129 q 0.396875,-1.5875 -0.297656,-2.282031 -0.694531,-0.694531 -1.984375,-0.694531 -1.289844,0 -2.4804685,1.091406 -1.0914063,0.992188 -2.4804687,2.579688 L 5.6720043,26.706379 q 2.8773437,-2.877343 7.6398437,-6.548437 -0.595313,-0.09922 -0.892969,-0.396875 -0.595312,-0.595313 -0.595312,-1.389063 0,-1.190625 0.892968,-2.083593 1.389063,-1.389063 3.373438,-1.389063 1.488281,0 2.083594,0.595313 0.496093,0.496093 0.496093,1.190625 0,1.389062 -1.289843,2.282031 3.075781,-0.198438 4.464843,-1.5875 0.694532,-0.694531 0.694532,-1.984375 0,-1.289844 -0.694532,-1.984375 -0.79375,-0.79375 -2.778125,-0.79375 -5.060156,0 -9.9218745,4.7625 l -1.5875,-1.5875 Q 12.815754,12.121223 16.883723,8.0532546 14.006379,8.5493483 11.029817,9.0454421 L 10.73216,7.1602859 q 3.96875,-0.4960938 8.036719,-1.190625 l 0.79375,-0.2976563 0.992188,0.9921875 q 0.992187,0.79375 -0.396875,0.9921875 -2.182813,1.984375 -4.464844,3.8695314 z m 0.297656,4.7625 q -1.289844,0 -1.984375,0.694531 -0.595312,0.595312 -0.595312,1.091406 0,0.79375 0.992187,0.79375 1.091406,0 1.785938,-0.694531 0.694531,-0.694531 0.694531,-1.190625 0,-0.694531 -0.892969,-0.694531 z" />
  </g>
</svg>
