<?xml version="1.0" encoding="UTF-8" standalone="no"?>
<svg
   xmlns:dc="http://purl.org/dc/elements/1.1/"
   xmlns:cc="http://creativecommons.org/ns#"
   xmlns:rdf="http://www.w3.org/1999/02/22-rdf-syntax-ns#"
   xmlns:svg="http://www.w3.org/2000/svg"
   xmlns="http://www.w3.org/2000/svg"
   width="128"
   height="128"
   viewBox="0 0 33.866665 33.866667"
   version="1.1"
   id="svg8">
  <title
     id="title4958">を</title>
  <defs
     id="defs2" />
  <metadata
     id="metadata5">
    <rdf:RDF>
      <cc:Work
         rdf:about="">
        <dc:format>image/svg+xml</dc:format>
        <dc:type
           rdf:resource="http://purl.org/dc/dcmitype/StillImage" />
        <dc:title>を</dc:title>
        <dc:creator>
          <cc:Agent>
            <dc:title>Oscar Javier Jiménez Mejía</dc:title>
          </cc:Agent>
        </dc:creator>
        <dc:rights>
          <cc:Agent>
            <dc:title>leojim06</dc:title>
          </cc:Agent>
        </dc:rights>
        <dc:language>Japonés</dc:language>
        <dc:publisher>
          <cc:Agent>
            <dc:title>leojim06</dc:title>
          </cc:Agent>
        </dc:publisher>
      </cc:Work>
    </rdf:RDF>
  </metadata>
  <g
     id="text4953"
     style="font-style:normal;font-variant:normal;font-weight:bold;font-stretch:normal;font-size:25.39999962px;line-height:100%;font-family:Roboto;-inkscape-font-specification:'Roboto, Bold';text-align:start;letter-spacing:0px;word-spacing:0px;writing-mode:lr-tb;text-anchor:start;fill:#000000;fill-opacity:1;stroke:none;stroke-width:0.26458332px;stroke-linecap:butt;stroke-linejoin:miter;stroke-opacity:1"
     aria-label="を">
    <path
       id="path4955"
       style="stroke-width:0.26458332px"
       d="m 14.055989,14.601692 q 1.190625,-0.396875 2.282031,-0.396875 1.289844,0 2.083594,0.79375 0.595312,0.595312 0.694531,2.182812 2.976562,-1.091406 6.746875,-2.282031 l 0.694531,2.38125 q -3.869531,0.595313 -7.242969,1.885156 v 4.365625 h -1.984375 v -3.571875 q -2.976562,1.389063 -3.869531,2.282032 -1.091406,1.091406 -1.091406,2.182812 0,0.595313 0.595312,1.190625 0.694532,0.694531 2.678907,0.694531 h 8.334375 v 1.885157 H 15.54427 q -3.175,0 -4.464844,-1.289844 -0.992187,-0.992188 -0.992187,-2.480469 0,-1.5875 1.289844,-2.877344 1.984374,-1.984375 5.853906,-3.571875 -0.09922,-1.190625 -0.496094,-1.5875 -0.396875,-0.396875 -1.686719,-0.396875 -1.984375,0 -6.0523434,3.571875 L 7.3091138,17.875911 q 4.6632812,-2.877344 6.3500002,-6.35 -2.778125,0.198437 -5.5562502,0.396875 L 7.7059888,9.9384108 q 3.5718752,-0.099219 6.7468752,-0.2976562 0.496093,-1.190625 1.190625,-3.96875 l 1.885156,0.4960938 q 0.992187,0.396875 0,0.79375 -0.396875,1.2898437 -0.892969,2.5796874 3.571875,-0.2976562 6.846094,-0.79375 l 0.297656,2.0835942 q -3.869531,0.297656 -7.739062,0.595312 -0.992188,1.984375 -1.984375,3.175 z" />
  </g>
</svg>
