<?xml version="1.0" encoding="UTF-8" standalone="no"?>
<svg
   xmlns:dc="http://purl.org/dc/elements/1.1/"
   xmlns:cc="http://creativecommons.org/ns#"
   xmlns:rdf="http://www.w3.org/1999/02/22-rdf-syntax-ns#"
   xmlns:svg="http://www.w3.org/2000/svg"
   xmlns="http://www.w3.org/2000/svg"
   width="128"
   height="128"
   viewBox="0 0 33.866665 33.866667"
   version="1.1"
   id="svg8">
  <title
     id="title4969">ん</title>
  <defs
     id="defs2" />
  <metadata
     id="metadata5">
    <rdf:RDF>
      <cc:Work
         rdf:about="">
        <dc:format>image/svg+xml</dc:format>
        <dc:type
           rdf:resource="http://purl.org/dc/dcmitype/StillImage" />
        <dc:title>ん</dc:title>
        <dc:creator>
          <cc:Agent>
            <dc:title>Oscar Javier Jiménez Mejía</dc:title>
          </cc:Agent>
        </dc:creator>
        <dc:rights>
          <cc:Agent>
            <dc:title>leojim06</dc:title>
          </cc:Agent>
        </dc:rights>
        <dc:language>Japonés</dc:language>
        <dc:publisher>
          <cc:Agent>
            <dc:title>leojim06</dc:title>
          </cc:Agent>
        </dc:publisher>
      </cc:Work>
    </rdf:RDF>
  </metadata>
  <g
     id="text4964"
     style="font-style:normal;font-variant:normal;font-weight:bold;font-stretch:normal;font-size:25.39999962px;line-height:100%;font-family:Roboto;-inkscape-font-specification:'Roboto, Bold';text-align:start;letter-spacing:0px;word-spacing:0px;writing-mode:lr-tb;text-anchor:start;fill:#000000;fill-opacity:1;stroke:none;stroke-width:0.26458332px;stroke-linecap:butt;stroke-linejoin:miter;stroke-opacity:1"
     aria-label="ん">
    <path
       id="path4966"
       style="stroke-width:0.26458332px"
       d="m 16.089973,19.612239 q -0.198438,-1.190625 -1.389063,-1.190625 -2.480468,0 -4.266406,2.976562 -1.091406,1.785938 -2.1828122,4.564063 L 5.9696605,24.771614 q 4.0679685,-6.35 9.7234375,-18.0578125 l 2.182812,1.190625 q 0.694532,0.6945312 -0.297656,0.79375 -2.083594,3.0757815 -4.960937,8.4335935 1.686718,-0.694531 2.976562,-0.694531 1.190625,0 1.885156,0.694531 0.694532,0.694531 0.892969,2.778125 l 0.595313,3.770312 q 0.198437,1.289844 1.5875,1.289844 1.289843,0 2.182812,-0.892969 1.885156,-1.885156 2.976562,-7.441406 l 2.182813,1.091407 q -1.289844,5.655468 -3.075781,7.441406 -1.984375,1.984375 -4.464844,1.984375 -3.075781,0 -3.571875,-3.274219 z" />
  </g>
</svg>
