<?xml version="1.0" encoding="UTF-8" standalone="no"?>
<svg
   xmlns:dc="http://purl.org/dc/elements/1.1/"
   xmlns:cc="http://creativecommons.org/ns#"
   xmlns:rdf="http://www.w3.org/1999/02/22-rdf-syntax-ns#"
   xmlns:svg="http://www.w3.org/2000/svg"
   xmlns="http://www.w3.org/2000/svg"
   width="128"
   height="128"
   viewBox="0 0 33.866665 33.866667"
   version="1.1"
   id="svg8">
  <title
     id="title5145">タ</title>
  <defs
     id="defs2" />
  <metadata
     id="metadata5">
    <rdf:RDF>
      <cc:Work
         rdf:about="">
        <dc:format>image/svg+xml</dc:format>
        <dc:type
           rdf:resource="http://purl.org/dc/dcmitype/StillImage" />
        <dc:title>タ</dc:title>
        <dc:creator>
          <cc:Agent>
            <dc:title>Oscar Javier Jiménez Mejía</dc:title>
          </cc:Agent>
        </dc:creator>
        <dc:rights>
          <cc:Agent>
            <dc:title>leojim06</dc:title>
          </cc:Agent>
        </dc:rights>
        <dc:language>Japonés</dc:language>
        <dc:publisher>
          <cc:Agent>
            <dc:title>leojim06</dc:title>
          </cc:Agent>
        </dc:publisher>
      </cc:Work>
    </rdf:RDF>
  </metadata>
  <g
     id="text5140"
     style="font-style:normal;font-variant:normal;font-weight:bold;font-stretch:normal;font-size:25.39999962px;line-height:100%;font-family:Roboto;-inkscape-font-specification:'Roboto, Bold';text-align:start;letter-spacing:0px;word-spacing:0px;writing-mode:lr-tb;text-anchor:start;fill:#000000;fill-opacity:1;stroke:none;stroke-width:0.26458332px;stroke-linecap:butt;stroke-linejoin:miter;stroke-opacity:1"
     aria-label="タ">
    <path
       id="path5142"
       style="stroke-width:0.26458332px"
       d="m 17.164843,7.7059878 q -0.396875,1.190625 -0.992188,2.2820312 h 6.647656 l 1.091407,-0.396875 1.289843,1.289844 q 0.396875,0.496094 -0.396875,0.79375 -0.79375,3.96875 -2.38125,7.242968 l 2.38125,1.5875 -1.488281,2.182813 -2.182812,-1.5875 q -2.877344,4.167187 -8.235157,6.846094 l -2.282031,-1.686719 q 5.953125,-2.480469 8.532813,-6.548438 -2.480469,-1.5875 -4.861719,-2.877343 l 1.190625,-1.785938 q 3.075781,1.389063 5.060156,2.579688 1.488281,-3.075782 1.785938,-5.457031 h -7.242969 q -1.885156,3.373437 -4.663281,6.151562 L 8.5328115,17.03255 Q 13.592968,11.773957 15.180468,5.9200504 l 2.38125,0.9921874 q 0.79375,0.396875 -0.396875,0.79375 z" />
  </g>
</svg>
